<svg width="311" height="292" viewBox="0 0 311 292" fill="none" xmlns="http://www.w3.org/2000/svg">
<rect width="311" height="292" rx="10" fill="#35CE4E"/>
<rect x="28" y="24" width="181" height="70" fill="#D9D9D9"/>
<path d="M45.0964 47V38.2727H48.5396C49.2015 38.2727 49.7654 38.3991 50.2314 38.652C50.6973 38.902 51.0524 39.25 51.2967 39.696C51.5439 40.1392 51.6674 40.6506 51.6674 41.2301C51.6674 41.8097 51.5424 42.321 51.2924 42.7642C51.0424 43.2074 50.6802 43.5526 50.2058 43.7997C49.7342 44.0469 49.1632 44.1705 48.4927 44.1705H46.2981V42.6918H48.1944C48.5495 42.6918 48.8422 42.6307 49.0723 42.5085C49.3052 42.3835 49.4785 42.2116 49.5922 41.9929C49.7086 41.7713 49.7669 41.517 49.7669 41.2301C49.7669 40.9403 49.7086 40.6875 49.5922 40.4716C49.4785 40.2528 49.3052 40.0838 49.0723 39.9645C48.8393 39.8423 48.5439 39.7812 48.1859 39.7812H46.9416V47H45.0964ZM54.5225 47.1236C54.1049 47.1236 53.7328 47.0511 53.4061 46.9062C53.0794 46.7585 52.8208 46.5412 52.6305 46.2543C52.443 45.9645 52.3493 45.6037 52.3493 45.1719C52.3493 44.8082 52.416 44.5028 52.5495 44.2557C52.6831 44.0085 52.8649 43.8097 53.095 43.6591C53.3251 43.5085 53.5865 43.3949 53.8791 43.3182C54.1745 43.2415 54.4842 43.1875 54.8081 43.1562C55.1887 43.1165 55.4956 43.0795 55.7285 43.0455C55.9615 43.0085 56.1305 42.9545 56.2356 42.8835C56.3407 42.8125 56.3933 42.7074 56.3933 42.5682V42.5426C56.3933 42.2727 56.3081 42.0639 56.1376 41.9162C55.97 41.7685 55.7314 41.6946 55.4217 41.6946C55.095 41.6946 54.835 41.767 54.6419 41.9119C54.4487 42.054 54.3208 42.233 54.2583 42.4489L52.5794 42.3125C52.6646 41.9148 52.8322 41.571 53.0822 41.2812C53.3322 40.9886 53.6547 40.7642 54.0495 40.608C54.4473 40.4489 54.9075 40.3693 55.4302 40.3693C55.7939 40.3693 56.1419 40.4119 56.4743 40.4972C56.8095 40.5824 57.1064 40.7145 57.3649 40.8935C57.6262 41.0724 57.8322 41.3026 57.9828 41.5838C58.1333 41.8622 58.2086 42.196 58.2086 42.5852V47H56.487V46.0923H56.4359C56.3308 46.2969 56.1902 46.4773 56.014 46.6335C55.8379 46.7869 55.6262 46.9077 55.3791 46.9957C55.1319 47.081 54.8464 47.1236 54.5225 47.1236ZM55.0424 45.8707C55.3095 45.8707 55.5453 45.8182 55.7498 45.7131C55.9544 45.6051 56.1149 45.4602 56.2314 45.2784C56.3478 45.0966 56.4061 44.8906 56.4061 44.6605V43.9659C56.3493 44.0028 56.2711 44.0369 56.1717 44.0682C56.0751 44.0966 55.9657 44.1236 55.8436 44.1491C55.7214 44.1719 55.5993 44.1932 55.4771 44.2131C55.3549 44.2301 55.2441 44.2457 55.1447 44.2599C54.9316 44.2912 54.7456 44.3409 54.5865 44.4091C54.4274 44.4773 54.3038 44.5696 54.2157 44.6861C54.1277 44.7997 54.0836 44.9418 54.0836 45.1122C54.0836 45.3594 54.1731 45.5483 54.3521 45.679C54.5339 45.8068 54.764 45.8707 55.0424 45.8707ZM60.5034 49.4545C60.2733 49.4545 60.0574 49.4361 59.8556 49.3991C59.6568 49.3651 59.492 49.321 59.3613 49.267L59.7704 47.9119C59.9835 47.9773 60.1752 48.0128 60.3457 48.0185C60.519 48.0241 60.6681 47.9844 60.7931 47.8991C60.921 47.8139 61.0247 47.669 61.1042 47.4645L61.2108 47.1875L58.8627 40.4545H60.7718L62.127 45.2614H62.1951L63.563 40.4545H65.4849L62.9409 47.7074C62.8187 48.0597 62.6525 48.3665 62.4423 48.6278C62.2349 48.892 61.9721 49.0952 61.6539 49.2372C61.3358 49.3821 60.9522 49.4545 60.5034 49.4545ZM72.6728 40.4545V41.8182H68.731V40.4545H72.6728ZM69.6259 38.8864H71.4412V44.9886C71.4412 45.1562 71.4668 45.2869 71.5179 45.3807C71.5691 45.4716 71.6401 45.5355 71.731 45.5724C71.8248 45.6094 71.9327 45.6278 72.0549 45.6278C72.1401 45.6278 72.2253 45.6207 72.3105 45.6065C72.3958 45.5895 72.4611 45.5767 72.5066 45.5682L72.7921 46.919C72.7012 46.9474 72.5733 46.9801 72.4086 47.017C72.2438 47.0568 72.0435 47.081 71.8077 47.0895C71.3702 47.1065 70.9867 47.0483 70.6571 46.9148C70.3304 46.7812 70.0762 46.5739 69.8944 46.2926C69.7125 46.0114 69.623 45.6562 69.6259 45.2273V38.8864ZM76.7424 47.1278C76.0804 47.1278 75.508 46.9872 75.025 46.706C74.5449 46.4219 74.1742 46.027 73.9128 45.5213C73.6515 45.0128 73.5208 44.4233 73.5208 43.7528C73.5208 43.0767 73.6515 42.4858 73.9128 41.9801C74.1742 41.4716 74.5449 41.0767 75.025 40.7955C75.508 40.5114 76.0804 40.3693 76.7424 40.3693C77.4043 40.3693 77.9753 40.5114 78.4554 40.7955C78.9384 41.0767 79.3105 41.4716 79.5719 41.9801C79.8333 42.4858 79.964 43.0767 79.964 43.7528C79.964 44.4233 79.8333 45.0128 79.5719 45.5213C79.3105 46.027 78.9384 46.4219 78.4554 46.706C77.9753 46.9872 77.4043 47.1278 76.7424 47.1278ZM76.7509 45.7216C77.052 45.7216 77.3034 45.6364 77.5051 45.4659C77.7069 45.2926 77.8588 45.0568 77.9611 44.7585C78.0662 44.4602 78.1188 44.1207 78.1188 43.7401C78.1188 43.3594 78.0662 43.0199 77.9611 42.7216C77.8588 42.4233 77.7069 42.1875 77.5051 42.0142C77.3034 41.8409 77.052 41.7543 76.7509 41.7543C76.4469 41.7543 76.1912 41.8409 75.9838 42.0142C75.7793 42.1875 75.6245 42.4233 75.5194 42.7216C75.4171 43.0199 75.3659 43.3594 75.3659 43.7401C75.3659 44.1207 75.4171 44.4602 75.5194 44.7585C75.6245 45.0568 75.7793 45.2926 75.9838 45.4659C76.1912 45.6364 76.4469 45.7216 76.7509 45.7216ZM87.4032 40.4545V41.8182H83.4615V40.4545H87.4032ZM84.3564 38.8864H86.1717V44.9886C86.1717 45.1562 86.1973 45.2869 86.2484 45.3807C86.2995 45.4716 86.3706 45.5355 86.4615 45.5724C86.5552 45.6094 86.6632 45.6278 86.7853 45.6278C86.8706 45.6278 86.9558 45.6207 87.041 45.6065C87.1262 45.5895 87.1916 45.5767 87.237 45.5682L87.5225 46.919C87.4316 46.9474 87.3038 46.9801 87.139 47.017C86.9743 47.0568 86.774 47.081 86.5382 47.0895C86.1007 47.1065 85.7172 47.0483 85.3876 46.9148C85.0609 46.7812 84.8066 46.5739 84.6248 46.2926C84.443 46.0114 84.3535 45.6562 84.3564 45.2273V38.8864ZM90.5417 43.2159V47H88.7264V38.2727H90.4906V41.6094H90.5673C90.715 41.223 90.9537 40.9205 91.2832 40.7017C91.6127 40.4801 92.0261 40.3693 92.5233 40.3693C92.9778 40.3693 93.3741 40.4688 93.7122 40.6676C94.0531 40.8636 94.3173 41.1463 94.5048 41.5156C94.6951 41.8821 94.7889 42.321 94.786 42.8324V47H92.9707V43.1562C92.9735 42.7528 92.8713 42.4389 92.6639 42.2145C92.4593 41.9901 92.1724 41.8778 91.8031 41.8778C91.5559 41.8778 91.3372 41.9304 91.1468 42.0355C90.9593 42.1406 90.8116 42.294 90.7037 42.4957C90.5985 42.6946 90.5446 42.9347 90.5417 43.2159ZM99.1976 47.1278C98.5243 47.1278 97.9448 46.9915 97.459 46.7188C96.976 46.4432 96.6039 46.054 96.3425 45.5511C96.0811 45.0455 95.9505 44.4474 95.9505 43.7571C95.9505 43.0838 96.0811 42.4929 96.3425 41.9844C96.6039 41.4759 96.9718 41.0795 97.4462 40.7955C97.9235 40.5114 98.4831 40.3693 99.1252 40.3693C99.557 40.3693 99.959 40.4389 100.331 40.5781C100.706 40.7145 101.033 40.9205 101.311 41.196C101.593 41.4716 101.811 41.8182 101.968 42.2358C102.124 42.6506 102.202 43.1364 102.202 43.6932V44.1918H96.6749V43.0668H100.493C100.493 42.8054 100.436 42.5739 100.323 42.3722C100.209 42.1705 100.051 42.0128 99.8496 41.8991C99.6507 41.7827 99.4192 41.7244 99.155 41.7244C98.8794 41.7244 98.6351 41.7884 98.4221 41.9162C98.2118 42.0412 98.0471 42.2102 97.9277 42.4233C97.8084 42.6335 97.7473 42.8679 97.7445 43.1264V44.196C97.7445 44.5199 97.8042 44.7997 97.9235 45.0355C98.0456 45.2713 98.2175 45.4531 98.4391 45.581C98.6607 45.7088 98.9235 45.7727 99.2275 45.7727C99.4292 45.7727 99.6138 45.7443 99.7814 45.6875C99.949 45.6307 100.093 45.5455 100.212 45.4318C100.331 45.3182 100.422 45.179 100.485 45.0142L102.164 45.125C102.078 45.5284 101.904 45.8807 101.639 46.1818C101.378 46.4801 101.04 46.7131 100.625 46.8807C100.213 47.0455 99.7374 47.1278 99.1976 47.1278ZM58.044 57.6364C58.044 58.5881 57.8636 59.3977 57.5028 60.0653C57.1449 60.733 56.6563 61.2429 56.0369 61.5952C55.4205 61.9446 54.7273 62.1193 53.9574 62.1193C53.1818 62.1193 52.4858 61.9432 51.8693 61.5909C51.2528 61.2386 50.7656 60.7287 50.4077 60.0611C50.0497 59.3935 49.8707 58.5852 49.8707 57.6364C49.8707 56.6847 50.0497 55.875 50.4077 55.2074C50.7656 54.5398 51.2528 54.0312 51.8693 53.6818C52.4858 53.3295 53.1818 53.1534 53.9574 53.1534C54.7273 53.1534 55.4205 53.3295 56.0369 53.6818C56.6563 54.0312 57.1449 54.5398 57.5028 55.2074C57.8636 55.875 58.044 56.6847 58.044 57.6364ZM56.1733 57.6364C56.1733 57.0199 56.081 56.5 55.8963 56.0767C55.7145 55.6534 55.4574 55.3324 55.125 55.1136C54.7926 54.8949 54.4034 54.7855 53.9574 54.7855C53.5114 54.7855 53.1222 54.8949 52.7898 55.1136C52.4574 55.3324 52.1989 55.6534 52.0142 56.0767C51.8324 56.5 51.7415 57.0199 51.7415 57.6364C51.7415 58.2528 51.8324 58.7727 52.0142 59.196C52.1989 59.6193 52.4574 59.9403 52.7898 60.1591C53.1222 60.3778 53.5114 60.4872 53.9574 60.4872C54.4034 60.4872 54.7926 60.3778 55.125 60.1591C55.4574 59.9403 55.7145 59.6193 55.8963 59.196C56.081 58.7727 56.1733 58.2528 56.1733 57.6364ZM59.3768 62V55.4545H61.1367V56.5966H61.2049C61.3242 56.1903 61.5245 55.8835 61.8058 55.6761C62.087 55.4659 62.4109 55.3608 62.7773 55.3608C62.8683 55.3608 62.9663 55.3665 63.0714 55.3778C63.1765 55.3892 63.2688 55.4048 63.3484 55.4247V57.0355C63.2631 57.0099 63.1452 56.9872 62.9947 56.9673C62.8441 56.9474 62.7063 56.9375 62.5813 56.9375C62.3143 56.9375 62.0756 56.9957 61.8654 57.1122C61.658 57.2259 61.4933 57.3849 61.3711 57.5895C61.2518 57.794 61.1921 58.0298 61.1921 58.2969V62H59.3768ZM66.3942 62.1065C65.897 62.1065 65.4467 61.9787 65.0433 61.723C64.6428 61.4645 64.3246 61.0852 64.0888 60.5852C63.8558 60.0824 63.7393 59.4659 63.7393 58.7358C63.7393 57.9858 63.8601 57.3622 64.1016 56.8651C64.343 56.3651 64.6641 55.9915 65.0646 55.7443C65.468 55.4943 65.9098 55.3693 66.3899 55.3693C66.7564 55.3693 67.0618 55.4318 67.3061 55.5568C67.5533 55.679 67.7521 55.8324 67.9027 56.017C68.0561 56.1989 68.1726 56.3778 68.2521 56.554H68.3075V53.2727H70.1186V62H68.3288V60.9517H68.2521C68.1669 61.1335 68.0462 61.3139 67.8899 61.4929C67.7365 61.669 67.5362 61.8153 67.2891 61.9318C67.0447 62.0483 66.7464 62.1065 66.3942 62.1065ZM66.9695 60.6619C67.2621 60.6619 67.5092 60.5824 67.7109 60.4233C67.9155 60.2614 68.0717 60.0355 68.1797 59.7457C68.2905 59.456 68.3459 59.1165 68.3459 58.7273C68.3459 58.3381 68.2919 58 68.1839 57.7131C68.076 57.4261 67.9197 57.2045 67.7152 57.0483C67.5107 56.892 67.2621 56.8139 66.9695 56.8139C66.6712 56.8139 66.4197 56.8949 66.2152 57.0568C66.0107 57.2187 65.8558 57.4432 65.7507 57.7301C65.6456 58.017 65.593 58.3494 65.593 58.7273C65.593 59.108 65.6456 59.4446 65.7507 59.7372C65.8587 60.027 66.0135 60.2543 66.2152 60.419C66.4197 60.581 66.6712 60.6619 66.9695 60.6619ZM74.5941 62.1278C73.9208 62.1278 73.3413 61.9915 72.8555 61.7188C72.3725 61.4432 72.0004 61.054 71.739 60.5511C71.4776 60.0455 71.3469 59.4474 71.3469 58.7571C71.3469 58.0838 71.4776 57.4929 71.739 56.9844C72.0004 56.4759 72.3683 56.0795 72.8427 55.7955C73.32 55.5114 73.8796 55.3693 74.5217 55.3693C74.9535 55.3693 75.3555 55.4389 75.7276 55.5781C76.1026 55.7145 76.4293 55.9205 76.7077 56.196C76.989 56.4716 77.2077 56.8182 77.364 57.2358C77.5202 57.6506 77.5984 58.1364 77.5984 58.6932V59.1918H72.0714V58.0668H75.8896C75.8896 57.8054 75.8327 57.5739 75.7191 57.3722C75.6055 57.1705 75.4478 57.0128 75.2461 56.8991C75.0472 56.7827 74.8157 56.7244 74.5515 56.7244C74.2759 56.7244 74.0316 56.7884 73.8185 56.9162C73.6083 57.0412 73.4435 57.2102 73.3242 57.4233C73.2049 57.6335 73.1438 57.8679 73.141 58.1264V59.196C73.141 59.5199 73.2006 59.7997 73.32 60.0355C73.4421 60.2713 73.614 60.4531 73.8356 60.581C74.0572 60.7088 74.32 60.7727 74.6239 60.7727C74.8256 60.7727 75.0103 60.7443 75.1779 60.6875C75.3455 60.6307 75.489 60.5455 75.6083 60.4318C75.7276 60.3182 75.8185 60.179 75.881 60.0142L77.56 60.125C77.4748 60.5284 77.3001 60.8807 77.0359 61.1818C76.7745 61.4801 76.4364 61.7131 76.0217 61.8807C75.6097 62.0455 75.1339 62.1278 74.5941 62.1278ZM78.783 62V55.4545H80.543V56.5966H80.6112C80.7305 56.1903 80.9308 55.8835 81.212 55.6761C81.4933 55.4659 81.8171 55.3608 82.1836 55.3608C82.2745 55.3608 82.3725 55.3665 82.4776 55.3778C82.5827 55.3892 82.6751 55.4048 82.7546 55.4247V57.0355C82.6694 57.0099 82.5515 56.9872 82.4009 56.9673C82.2504 56.9474 82.1126 56.9375 81.9876 56.9375C81.7205 56.9375 81.4819 56.9957 81.2717 57.1122C81.0643 57.2259 80.8995 57.3849 80.7773 57.5895C80.658 57.794 80.5984 58.0298 80.5984 58.2969V62H78.783ZM89.4279 62.1278C88.766 62.1278 88.1935 61.9872 87.7106 61.706C87.2305 61.4219 86.8597 61.027 86.5984 60.5213C86.337 60.0128 86.2063 59.4233 86.2063 58.7528C86.2063 58.0767 86.337 57.4858 86.5984 56.9801C86.8597 56.4716 87.2305 56.0767 87.7106 55.7955C88.1935 55.5114 88.766 55.3693 89.4279 55.3693C90.0898 55.3693 90.6609 55.5114 91.141 55.7955C91.6239 56.0767 91.9961 56.4716 92.2575 56.9801C92.5188 57.4858 92.6495 58.0767 92.6495 58.7528C92.6495 59.4233 92.5188 60.0128 92.2575 60.5213C91.9961 61.027 91.6239 61.4219 91.141 61.706C90.6609 61.9872 90.0898 62.1278 89.4279 62.1278ZM89.4364 60.7216C89.7376 60.7216 89.989 60.6364 90.1907 60.4659C90.3924 60.2926 90.5444 60.0568 90.6467 59.7585C90.7518 59.4602 90.8043 59.1207 90.8043 58.7401C90.8043 58.3594 90.7518 58.0199 90.6467 57.7216C90.5444 57.4233 90.3924 57.1875 90.1907 57.0142C89.989 56.8409 89.7376 56.7543 89.4364 56.7543C89.1325 56.7543 88.8768 56.8409 88.6694 57.0142C88.4648 57.1875 88.31 57.4233 88.2049 57.7216C88.1026 58.0199 88.0515 58.3594 88.0515 58.7401C88.0515 59.1207 88.1026 59.4602 88.2049 59.7585C88.31 60.0568 88.4648 60.2926 88.6694 60.4659C88.8768 60.6364 89.1325 60.7216 89.4364 60.7216ZM97.3498 55.4545V56.8182H93.31V55.4545H97.3498ZM94.2347 62V54.9815C94.2347 54.5071 94.3271 54.1136 94.5117 53.8011C94.6992 53.4886 94.9549 53.2543 95.2788 53.098C95.6026 52.9418 95.9705 52.8636 96.3825 52.8636C96.6609 52.8636 96.9151 52.8849 97.1452 52.9276C97.3782 52.9702 97.5515 53.0085 97.6651 53.0426L97.3413 54.4062C97.2702 54.3835 97.1822 54.3622 97.0771 54.3423C96.9748 54.3224 96.8697 54.3125 96.7617 54.3125C96.4947 54.3125 96.3086 54.375 96.2035 54.5C96.0984 54.6222 96.0458 54.794 96.0458 55.0156V62H94.2347Z" fill="black"/>
<line x1="102" y1="56" x2="194" y2="56" stroke="black" stroke-width="2"/>
<line x1="138" y1="84" x2="202" y2="84" stroke="black" stroke-width="2"/>
<path d="M155.58 69.0664C155.713 68.9141 155.838 68.8105 155.955 68.7559C156.072 68.6973 156.213 68.668 156.377 68.668C156.561 68.668 156.691 68.6992 156.77 68.7617C156.852 68.8203 156.893 68.9062 156.893 69.0195C156.893 69.0938 156.9 69.1543 156.916 69.2012C156.932 69.2441 156.951 69.2773 156.975 69.3008C157.002 69.3242 157.029 69.3398 157.057 69.3477C157.088 69.3555 157.119 69.3594 157.15 69.3594C157.279 69.3594 157.424 69.3398 157.584 69.3008C157.744 69.2617 157.912 69.2109 158.088 69.1484C158.264 69.082 158.441 69.0078 158.621 68.9258C158.805 68.8438 158.98 68.7598 159.148 68.6738C159.316 68.5879 159.475 68.5059 159.623 68.4277C159.771 68.3457 159.9 68.2734 160.01 68.2109L160.127 68.3164C159.803 68.5234 159.482 68.7578 159.166 69.0195C158.854 69.2812 158.553 69.5508 158.264 69.8281C157.975 70.1016 157.703 70.373 157.449 70.6426C157.195 70.9082 156.971 71.1523 156.775 71.375L155.264 73.0977L156.119 73.1562L155.92 73.4844H154.924C154.682 73.7617 154.439 74.0332 154.197 74.2988C153.955 74.5645 153.729 74.8086 153.518 75.0312C153.244 75.3164 152.965 75.5781 152.68 75.8164C152.395 76.0547 152.098 76.2617 151.789 76.4375C151.48 76.6094 151.16 76.7441 150.828 76.8418C150.496 76.9395 150.146 76.9883 149.779 76.9883C149.354 76.9883 149.023 76.9062 148.789 76.7422C148.559 76.5781 148.443 76.3633 148.443 76.0977C148.443 76 148.459 75.9004 148.49 75.7988C148.521 75.6934 148.568 75.5996 148.631 75.5176C148.697 75.4316 148.777 75.3633 148.871 75.3125C148.969 75.2578 149.08 75.2305 149.205 75.2305C149.346 75.2305 149.455 75.2676 149.533 75.3418C149.611 75.416 149.65 75.5234 149.65 75.6641C149.65 75.793 149.619 75.8984 149.557 75.9805C149.498 76.0586 149.434 76.125 149.363 76.1797C149.293 76.2344 149.227 76.2852 149.164 76.332C149.105 76.375 149.076 76.4258 149.076 76.4844C149.076 76.5664 149.123 76.6289 149.217 76.6719C149.311 76.7109 149.439 76.7305 149.604 76.7305C149.916 76.7305 150.207 76.6836 150.477 76.5898C150.746 76.4961 151.004 76.3652 151.25 76.1973C151.496 76.0293 151.736 75.8281 151.971 75.5938C152.209 75.3594 152.451 75.1016 152.697 74.8203C152.881 74.6133 153.07 74.4004 153.266 74.1816C153.465 73.959 153.67 73.7266 153.881 73.4844H152.955L153.33 72.957L154.291 73.0273L155.275 71.9141C155.623 71.5195 155.984 71.123 156.359 70.7246C156.734 70.3262 157.154 69.9492 157.619 69.5938C157.572 69.625 157.51 69.6602 157.432 69.6992C157.357 69.7383 157.275 69.7754 157.186 69.8105C157.096 69.8418 157.002 69.8691 156.904 69.8926C156.811 69.9121 156.721 69.9219 156.635 69.9219C156.51 69.9219 156.406 69.8926 156.324 69.834C156.242 69.7754 156.201 69.6719 156.201 69.5234V69.0195C156.201 68.9844 156.191 68.959 156.172 68.9434C156.152 68.9238 156.127 68.9141 156.096 68.9141C156.053 68.9141 156 68.9316 155.938 68.9668C155.879 69.002 155.799 69.0703 155.697 69.1719L155.58 69.0664ZM160.197 75.3477C160.01 75.5586 159.852 75.7598 159.723 75.9512C159.594 76.1387 159.529 76.3008 159.529 76.4375C159.529 76.543 159.566 76.6191 159.641 76.666C159.719 76.709 159.814 76.7305 159.928 76.7305C160.033 76.7305 160.156 76.7188 160.297 76.6953C160.441 76.6719 160.609 76.6309 160.801 76.5723C160.996 76.5098 161.221 76.4277 161.475 76.3262C161.732 76.2246 162.029 76.0938 162.365 75.9336L162.424 76.0742C162.072 76.2422 161.756 76.3848 161.475 76.502C161.193 76.6191 160.938 76.7168 160.707 76.7949C160.48 76.8691 160.273 76.9238 160.086 76.959C159.902 76.9941 159.732 77.0117 159.576 77.0117C159.479 77.0117 159.379 77 159.277 76.9766C159.176 76.9492 159.082 76.9102 158.996 76.8594C158.914 76.8047 158.846 76.7402 158.791 76.666C158.736 76.5918 158.709 76.5039 158.709 76.4023C158.709 76.3555 158.715 76.3066 158.727 76.2559C158.738 76.2051 158.76 76.1523 158.791 76.0977C158.467 76.4141 158.156 76.6465 157.859 76.7949C157.562 76.9395 157.287 77.0117 157.033 77.0117C156.838 77.0117 156.68 76.9863 156.559 76.9355C156.441 76.8809 156.348 76.8125 156.277 76.7305C156.211 76.6445 156.166 76.5488 156.143 76.4434C156.119 76.3379 156.107 76.2305 156.107 76.1211C156.107 75.9375 156.15 75.7461 156.236 75.5469C156.322 75.3477 156.438 75.1504 156.582 74.9551C156.73 74.7598 156.9 74.5742 157.092 74.3984C157.287 74.2188 157.492 74.0625 157.707 73.9297C157.922 73.793 158.139 73.6855 158.357 73.6074C158.576 73.5254 158.787 73.4844 158.99 73.4844C159.119 73.4844 159.24 73.4961 159.354 73.5195C159.467 73.543 159.564 73.5801 159.646 73.6309C159.729 73.6777 159.793 73.7422 159.84 73.8242C159.891 73.9023 159.916 73.9961 159.916 74.1055C159.916 74.2305 159.881 74.375 159.811 74.5391L159.611 74.6328C159.635 74.5391 159.646 74.4492 159.646 74.3633C159.646 74.3008 159.639 74.2402 159.623 74.1816C159.611 74.1191 159.59 74.0645 159.559 74.0176C159.527 73.9707 159.484 73.9336 159.43 73.9062C159.379 73.875 159.314 73.8594 159.236 73.8594C159.068 73.8594 158.896 73.9004 158.721 73.9824C158.545 74.0605 158.373 74.166 158.205 74.2988C158.041 74.4277 157.885 74.5742 157.736 74.7383C157.592 74.8984 157.465 75.0625 157.355 75.2305C157.246 75.3984 157.158 75.5605 157.092 75.7168C157.029 75.873 156.998 76.0078 156.998 76.1211C156.998 76.2812 157.035 76.3867 157.109 76.4375C157.184 76.4844 157.303 76.5078 157.467 76.5078C157.662 76.5078 157.865 76.4473 158.076 76.3262C158.287 76.2051 158.51 76.0391 158.744 75.8281C158.85 75.7266 158.951 75.6289 159.049 75.5352C159.15 75.4414 159.26 75.3242 159.377 75.1836C159.447 75.0977 159.531 74.9961 159.629 74.8789C159.73 74.7617 159.836 74.6406 159.945 74.5156C160.059 74.3867 160.172 74.2617 160.285 74.1406C160.402 74.0195 160.512 73.9102 160.613 73.8125C160.719 73.7148 160.812 73.6367 160.895 73.5781C160.977 73.5156 161.041 73.4844 161.088 73.4844C161.119 73.4844 161.162 73.4902 161.217 73.502C161.271 73.5137 161.324 73.5312 161.375 73.5547C161.43 73.5742 161.475 73.6016 161.51 73.6367C161.549 73.668 161.568 73.7031 161.568 73.7422C161.568 73.7852 161.539 73.8398 161.48 73.9062C161.426 73.9727 161.357 74.0508 161.275 74.1406L160.197 75.3477ZM161.908 76.9766C161.889 76.9844 161.869 76.9883 161.85 76.9883C161.83 76.9883 161.811 76.9883 161.791 76.9883C161.744 76.9883 161.699 76.9805 161.656 76.9648C161.609 76.9453 161.568 76.9238 161.533 76.9004C161.498 76.873 161.471 76.8457 161.451 76.8184C161.428 76.7871 161.416 76.7578 161.416 76.7305C161.416 76.6836 161.432 76.6367 161.463 76.5898C161.49 76.5391 161.525 76.4922 161.568 76.4492L163.127 74.668C163.244 74.5312 163.365 74.3926 163.49 74.252C163.619 74.1074 163.74 73.9785 163.854 73.8652C163.971 73.748 164.076 73.6543 164.17 73.584C164.264 73.5098 164.338 73.4727 164.393 73.4727C164.424 73.4727 164.467 73.4785 164.521 73.4902C164.576 73.502 164.629 73.5195 164.68 73.543C164.734 73.5625 164.779 73.5898 164.814 73.625C164.854 73.6562 164.873 73.6914 164.873 73.7305C164.873 73.7734 164.844 73.8281 164.785 73.8945C164.73 73.9609 164.662 74.0391 164.58 74.1289L164.486 74.2344C164.572 74.1758 164.684 74.1055 164.82 74.0234C164.961 73.9375 165.115 73.8555 165.283 73.7773C165.451 73.6992 165.625 73.6328 165.805 73.5781C165.988 73.5234 166.166 73.4961 166.338 73.4961C166.588 73.4961 166.758 73.5332 166.848 73.6074C166.938 73.6777 166.982 73.7773 166.982 73.9062C166.982 74.0547 166.939 74.209 166.854 74.3691C166.768 74.5254 166.66 74.6816 166.531 74.8379C166.406 74.9941 166.27 75.1484 166.121 75.3008C165.977 75.4492 165.84 75.5918 165.711 75.7285C165.586 75.8652 165.48 75.9941 165.395 76.1152C165.312 76.2324 165.271 76.3359 165.271 76.4258C165.271 76.4805 165.281 76.5254 165.301 76.5605C165.32 76.5918 165.344 76.6172 165.371 76.6367C165.402 76.6523 165.436 76.6621 165.471 76.666C165.51 76.6699 165.549 76.6719 165.588 76.6719C165.811 76.6719 166.031 76.6504 166.25 76.6074C166.469 76.5645 166.684 76.5078 166.895 76.4375C167.109 76.3672 167.32 76.2871 167.527 76.1973C167.734 76.1035 167.936 76.0078 168.131 75.9102L168.189 76.0508C168.061 76.1367 167.883 76.2344 167.656 76.3438C167.43 76.4531 167.176 76.5566 166.895 76.6543C166.613 76.752 166.312 76.834 165.992 76.9004C165.676 76.9668 165.361 77 165.049 77C164.865 77 164.717 76.9551 164.604 76.8652C164.494 76.7754 164.439 76.6328 164.439 76.4375C164.439 76.3438 164.471 76.2344 164.533 76.1094C164.596 75.9844 164.676 75.8555 164.773 75.7227C164.875 75.5859 164.986 75.4473 165.107 75.3066C165.232 75.166 165.354 75.0312 165.471 74.9023C165.592 74.7734 165.705 74.6543 165.811 74.5449C165.916 74.4316 166.002 74.3359 166.068 74.2578C166.092 74.2227 166.125 74.1777 166.168 74.123C166.211 74.0645 166.232 74.0117 166.232 73.9648C166.232 73.9336 166.219 73.9082 166.191 73.8887C166.168 73.8691 166.127 73.8594 166.068 73.8594C165.947 73.8594 165.83 73.873 165.717 73.9004C165.607 73.9238 165.496 73.959 165.383 74.0059C165.273 74.0527 165.16 74.1113 165.043 74.1816C164.926 74.252 164.803 74.332 164.674 74.4219C164.361 74.6445 164.064 74.8809 163.783 75.1309C163.506 75.3809 163.232 75.6406 162.963 75.9102C162.846 76.0469 162.717 76.1934 162.576 76.3496C162.436 76.5059 162.303 76.6406 162.178 76.7539C162.119 76.8203 162.068 76.8691 162.025 76.9004C161.982 76.9316 161.943 76.957 161.908 76.9766ZM171.869 76.0625C171.369 76.293 170.951 76.4727 170.615 76.6016C170.279 76.7305 169.992 76.8281 169.754 76.8945C169.52 76.957 169.316 76.9961 169.145 77.0117C168.973 77.0273 168.799 77.0352 168.623 77.0352C168.486 77.0352 168.355 77.0176 168.23 76.9824C168.109 76.9473 168.002 76.8926 167.908 76.8184C167.814 76.7441 167.74 76.6484 167.686 76.5312C167.631 76.4141 167.604 76.2734 167.604 76.1094C167.604 75.9219 167.643 75.7285 167.721 75.5293C167.803 75.3262 167.914 75.1289 168.055 74.9375C168.195 74.7422 168.359 74.5586 168.547 74.3867C168.738 74.2148 168.945 74.0645 169.168 73.9355C169.391 73.8027 169.623 73.6992 169.865 73.625C170.111 73.5469 170.357 73.5078 170.604 73.5078C170.689 73.5078 170.791 73.5156 170.908 73.5312C171.025 73.5469 171.137 73.5781 171.242 73.625C171.348 73.668 171.438 73.7285 171.512 73.8066C171.586 73.8848 171.623 73.9844 171.623 74.1055C171.623 74.2148 171.572 74.3281 171.471 74.4453C171.369 74.5625 171.232 74.6816 171.061 74.8027C170.893 74.9199 170.697 75.0371 170.475 75.1543C170.252 75.2715 170.021 75.3848 169.783 75.4941C169.549 75.5996 169.312 75.6992 169.074 75.793C168.836 75.8867 168.615 75.9688 168.412 76.0391C168.404 76.0703 168.4 76.1016 168.4 76.1328C168.4 76.1641 168.4 76.1953 168.4 76.2266C168.4 76.375 168.449 76.498 168.547 76.5957C168.645 76.6934 168.779 76.7422 168.951 76.7422C169.104 76.7422 169.254 76.7363 169.402 76.7246C169.551 76.7129 169.729 76.6816 169.936 76.6309C170.143 76.5762 170.395 76.4941 170.691 76.3848C170.988 76.2715 171.361 76.1172 171.811 75.9219L171.869 76.0625ZM170.521 73.8711C170.42 73.8711 170.307 73.9004 170.182 73.959C170.057 74.0137 169.926 74.0898 169.789 74.1875C169.652 74.2812 169.516 74.3926 169.379 74.5215C169.246 74.6504 169.119 74.7891 168.998 74.9375C168.881 75.082 168.775 75.2324 168.682 75.3887C168.588 75.541 168.518 75.6914 168.471 75.8398C168.643 75.7773 168.82 75.709 169.004 75.6348C169.191 75.5605 169.373 75.4824 169.549 75.4004C169.729 75.3184 169.898 75.2324 170.059 75.1426C170.219 75.0488 170.359 74.9512 170.48 74.8496C170.602 74.748 170.697 74.6445 170.768 74.5391C170.838 74.4297 170.873 74.3164 170.873 74.1992C170.873 74.1055 170.848 74.0273 170.797 73.9648C170.75 73.9023 170.658 73.8711 170.521 73.8711ZM189.307 68.1289C189.607 68.1289 189.857 68.1777 190.057 68.2754C190.26 68.3691 190.42 68.5039 190.537 68.6797C190.756 68.5547 190.965 68.4531 191.164 68.375C191.367 68.293 191.545 68.2461 191.697 68.2344L191.791 68.3867C191.607 68.4922 191.428 68.6074 191.252 68.7324C191.076 68.8535 190.9 68.9844 190.725 69.125C190.748 69.2266 190.768 69.334 190.783 69.4473C190.799 69.5605 190.807 69.6797 190.807 69.8047C190.807 70.4375 190.725 71.0254 190.561 71.5684C190.396 72.1113 190.176 72.6113 189.898 73.0684C189.621 73.5215 189.299 73.9355 188.932 74.3105C188.564 74.6816 188.176 75.0137 187.766 75.3066C187.359 75.5957 186.945 75.8477 186.523 76.0625C186.102 76.2773 185.695 76.4551 185.305 76.5957C184.918 76.7324 184.561 76.8359 184.232 76.9062C183.904 76.9766 183.631 77.0117 183.412 77.0117C183.225 77.0117 183.029 76.9824 182.826 76.9238C182.623 76.8652 182.416 76.7969 182.205 76.7188C181.971 76.7852 181.744 76.834 181.525 76.8652C181.311 76.8926 181.104 76.9062 180.904 76.9062C180.834 76.9062 180.758 76.8984 180.676 76.8828C180.594 76.8633 180.518 76.8359 180.447 76.8008C180.377 76.7617 180.318 76.7129 180.271 76.6543C180.225 76.5957 180.201 76.5273 180.201 76.4492C180.201 76.3906 180.223 76.3379 180.266 76.291C180.312 76.2402 180.369 76.1973 180.436 76.1621C180.502 76.127 180.574 76.0996 180.652 76.0801C180.73 76.0605 180.803 76.0508 180.869 76.0508C181.092 76.0508 181.305 76.082 181.508 76.1445C181.711 76.207 181.912 76.2773 182.111 76.3555C182.404 76.2227 182.691 76.0625 182.973 75.875C183.254 75.6875 183.514 75.498 183.752 75.3066C183.99 75.1152 184.199 74.9375 184.379 74.7734C184.559 74.6055 184.693 74.4766 184.783 74.3867C184.896 74.3047 185.047 74.1699 185.234 73.9824C185.422 73.7949 185.627 73.5801 185.85 73.3379C186.072 73.0957 186.305 72.8359 186.547 72.5586C186.789 72.2773 187.025 72.0039 187.256 71.7383C187.486 71.4688 187.701 71.2168 187.9 70.9824C188.1 70.748 188.268 70.5508 188.404 70.3906C188.498 70.2812 188.613 70.1602 188.75 70.0273C188.891 69.8945 189.045 69.7598 189.213 69.623C189.381 69.4824 189.557 69.3438 189.74 69.207C189.928 69.0703 190.115 68.9414 190.303 68.8203C190.209 68.6328 190.086 68.5078 189.934 68.4453C189.785 68.3828 189.619 68.3516 189.436 68.3516C188.998 68.3516 188.574 68.4258 188.164 68.5742C187.754 68.7188 187.371 68.9082 187.016 69.1426C186.66 69.377 186.334 69.6426 186.037 69.9395C185.744 70.2363 185.492 70.5371 185.281 70.8418C185.07 71.1465 184.906 71.4414 184.789 71.7266C184.676 72.0078 184.619 72.25 184.619 72.4531C184.619 72.5352 184.648 72.5977 184.707 72.6406C184.77 72.6797 184.857 72.6992 184.971 72.6992C185.104 72.6992 185.252 72.6758 185.416 72.6289C185.58 72.582 185.762 72.4883 185.961 72.3477C186.16 72.207 186.381 72.0059 186.623 71.7441C186.865 71.4785 187.135 71.1289 187.432 70.6953L187.525 70.8008C187.33 71.1719 187.127 71.5078 186.916 71.8086C186.705 72.1055 186.484 72.3594 186.254 72.5703C186.027 72.7812 185.793 72.9434 185.551 73.0566C185.312 73.1699 185.068 73.2266 184.818 73.2266C184.619 73.2266 184.461 73.1914 184.344 73.1211C184.227 73.0469 184.137 72.9492 184.074 72.8281C184.012 72.7031 183.971 72.5625 183.951 72.4062C183.936 72.25 183.928 72.0859 183.928 71.9141C183.928 71.6602 183.986 71.3906 184.104 71.1055C184.225 70.8203 184.396 70.5371 184.619 70.2559C184.846 69.9746 185.117 69.707 185.434 69.4531C185.754 69.1953 186.113 68.9688 186.512 68.7734C186.91 68.5781 187.344 68.4219 187.812 68.3047C188.281 68.1875 188.779 68.1289 189.307 68.1289ZM186.975 73.2148C186.584 73.6797 186.199 74.0938 185.82 74.457C185.445 74.8203 185.076 75.1387 184.713 75.4121C184.354 75.6855 184.002 75.918 183.658 76.1094C183.314 76.2969 182.982 76.4492 182.662 76.5664C182.791 76.6133 182.922 76.6504 183.055 76.6777C183.191 76.7051 183.33 76.7188 183.471 76.7188C183.744 76.7188 184.055 76.6758 184.402 76.5898C184.754 76.5 185.119 76.3711 185.498 76.2031C185.881 76.0352 186.27 75.832 186.664 75.5938C187.062 75.3555 187.447 75.0859 187.818 74.7852C188.189 74.4844 188.539 74.1562 188.867 73.8008C189.195 73.4453 189.48 73.0664 189.723 72.6641C189.969 72.2617 190.162 71.8418 190.303 71.4043C190.443 70.9629 190.514 70.5078 190.514 70.0391C190.514 69.9023 190.51 69.7754 190.502 69.6582C190.498 69.5371 190.486 69.4297 190.467 69.3359C190.174 69.5781 189.895 69.832 189.629 70.0977C189.367 70.3633 189.127 70.6289 188.908 70.8945L186.975 73.2148ZM180.928 76.3789C180.834 76.3789 180.758 76.3906 180.699 76.4141C180.641 76.4336 180.611 76.4609 180.611 76.4961C180.611 76.543 180.648 76.5801 180.723 76.6074C180.797 76.6348 180.869 76.6484 180.939 76.6484C181.057 76.6484 181.176 76.6387 181.297 76.6191C181.418 76.5957 181.541 76.5664 181.666 76.5312C181.537 76.4883 181.41 76.4551 181.285 76.4316C181.164 76.4043 181.045 76.3867 180.928 76.3789ZM193.947 75.8047C193.76 75.8047 193.592 75.7734 193.443 75.7109C193.299 75.6445 193.174 75.5547 193.068 75.4414C192.857 75.7734 192.648 76.043 192.441 76.25C192.234 76.457 192.033 76.6191 191.838 76.7363C191.646 76.8535 191.461 76.9336 191.281 76.9766C191.105 77.0156 190.939 77.0352 190.783 77.0352C190.596 77.0352 190.432 77.0137 190.291 76.9707C190.15 76.9238 190.033 76.8633 189.939 76.7891C189.846 76.7109 189.775 76.6211 189.729 76.5195C189.682 76.4141 189.658 76.3008 189.658 76.1797C189.658 75.9336 189.707 75.6953 189.805 75.4648C189.902 75.2305 190.033 75.0137 190.197 74.8145C190.361 74.6113 190.549 74.4277 190.76 74.2637C190.975 74.0957 191.195 73.9531 191.422 73.8359C191.648 73.7148 191.875 73.623 192.102 73.5605C192.328 73.4941 192.537 73.4609 192.729 73.4609C192.83 73.4609 192.932 73.4688 193.033 73.4844C193.135 73.5 193.227 73.5312 193.309 73.5781C193.391 73.625 193.457 73.6895 193.508 73.7715C193.559 73.8535 193.584 73.9609 193.584 74.0938C193.584 74.1836 193.574 74.2773 193.555 74.375C193.539 74.4688 193.52 74.5605 193.496 74.6504C193.473 74.7402 193.445 74.8262 193.414 74.9082C193.387 74.9902 193.361 75.0625 193.338 75.125C193.369 75.2773 193.453 75.3945 193.59 75.4766C193.73 75.5547 193.881 75.5938 194.041 75.5938C194.17 75.5938 194.299 75.5684 194.428 75.5176C194.561 75.4668 194.678 75.3945 194.779 75.3008L194.896 75.3945C194.795 75.5195 194.658 75.6191 194.486 75.6934C194.314 75.7676 194.135 75.8047 193.947 75.8047ZM191.029 76.6836C191.158 76.6836 191.305 76.6562 191.469 76.6016C191.633 76.5469 191.799 76.4609 191.967 76.3438C192.139 76.2266 192.307 76.0762 192.471 75.8926C192.635 75.709 192.783 75.4883 192.916 75.2305C192.783 75.0117 192.717 74.7812 192.717 74.5391C192.717 74.4141 192.744 74.3008 192.799 74.1992C192.857 74.0938 192.943 73.9883 193.057 73.8828C193.033 73.8711 193.002 73.8633 192.963 73.8594C192.928 73.8516 192.877 73.8477 192.811 73.8477C192.674 73.8477 192.508 73.8945 192.312 73.9883C192.121 74.082 191.924 74.209 191.721 74.3691C191.521 74.5254 191.332 74.709 191.152 74.9199C190.973 75.1309 190.83 75.3516 190.725 75.582C190.678 75.6758 190.633 75.7852 190.59 75.9102C190.547 76.0312 190.525 76.1484 190.525 76.2617C190.525 76.3789 190.561 76.4785 190.631 76.5605C190.701 76.6426 190.834 76.6836 191.029 76.6836ZM198.623 76.0625C198.123 76.293 197.705 76.4727 197.369 76.6016C197.033 76.7305 196.746 76.8281 196.508 76.8945C196.273 76.957 196.07 76.9961 195.898 77.0117C195.727 77.0273 195.553 77.0352 195.377 77.0352C195.24 77.0352 195.109 77.0176 194.984 76.9824C194.863 76.9473 194.756 76.8926 194.662 76.8184C194.568 76.7441 194.494 76.6484 194.439 76.5312C194.385 76.4141 194.357 76.2734 194.357 76.1094C194.357 75.9219 194.396 75.7285 194.475 75.5293C194.557 75.3262 194.668 75.1289 194.809 74.9375C194.949 74.7422 195.113 74.5586 195.301 74.3867C195.492 74.2148 195.699 74.0645 195.922 73.9355C196.145 73.8027 196.377 73.6992 196.619 73.625C196.865 73.5469 197.111 73.5078 197.357 73.5078C197.443 73.5078 197.545 73.5156 197.662 73.5312C197.779 73.5469 197.891 73.5781 197.996 73.625C198.102 73.668 198.191 73.7285 198.266 73.8066C198.34 73.8848 198.377 73.9844 198.377 74.1055C198.377 74.2148 198.326 74.3281 198.225 74.4453C198.123 74.5625 197.986 74.6816 197.814 74.8027C197.646 74.9199 197.451 75.0371 197.229 75.1543C197.006 75.2715 196.775 75.3848 196.537 75.4941C196.303 75.5996 196.066 75.6992 195.828 75.793C195.59 75.8867 195.369 75.9688 195.166 76.0391C195.158 76.0703 195.154 76.1016 195.154 76.1328C195.154 76.1641 195.154 76.1953 195.154 76.2266C195.154 76.375 195.203 76.498 195.301 76.5957C195.398 76.6934 195.533 76.7422 195.705 76.7422C195.857 76.7422 196.008 76.7363 196.156 76.7246C196.305 76.7129 196.482 76.6816 196.689 76.6309C196.896 76.5762 197.148 76.4941 197.445 76.3848C197.742 76.2715 198.115 76.1172 198.564 75.9219L198.623 76.0625ZM197.275 73.8711C197.174 73.8711 197.061 73.9004 196.936 73.959C196.811 74.0137 196.68 74.0898 196.543 74.1875C196.406 74.2812 196.27 74.3926 196.133 74.5215C196 74.6504 195.873 74.7891 195.752 74.9375C195.635 75.082 195.529 75.2324 195.436 75.3887C195.342 75.541 195.271 75.6914 195.225 75.8398C195.396 75.7773 195.574 75.709 195.758 75.6348C195.945 75.5605 196.127 75.4824 196.303 75.4004C196.482 75.3184 196.652 75.2324 196.812 75.1426C196.973 75.0488 197.113 74.9512 197.234 74.8496C197.355 74.748 197.451 74.6445 197.521 74.5391C197.592 74.4297 197.627 74.3164 197.627 74.1992C197.627 74.1055 197.602 74.0273 197.551 73.9648C197.504 73.9023 197.412 73.8711 197.275 73.8711Z" fill="black"/>
<rect x="29" y="141" width="109" height="129" fill="#D9D9D9"/>
<path d="M43.3952 163V154.273H49.2759V155.794H45.2404V157.874H48.9734V159.395H45.2404V161.479H49.293V163H43.3952ZM50.7088 163V156.455H52.4389V157.609H52.5156C52.652 157.226 52.8793 156.923 53.1974 156.702C53.5156 156.48 53.8963 156.369 54.3395 156.369C54.7884 156.369 55.1705 156.482 55.4858 156.706C55.8011 156.928 56.0114 157.229 56.1165 157.609H56.1847C56.3182 157.234 56.5597 156.935 56.9091 156.71C57.2614 156.483 57.6776 156.369 58.1577 156.369C58.7685 156.369 59.2642 156.564 59.6449 156.953C60.0284 157.339 60.2202 157.888 60.2202 158.598V163H58.4091V158.956C58.4091 158.592 58.3125 158.32 58.1193 158.138C57.9261 157.956 57.6847 157.865 57.3949 157.865C57.0653 157.865 56.8082 157.97 56.6236 158.18C56.4389 158.388 56.3466 158.662 56.3466 159.003V163H54.5866V158.918C54.5866 158.597 54.4943 158.341 54.3097 158.151C54.1278 157.96 53.8878 157.865 53.5895 157.865C53.3878 157.865 53.206 157.916 53.044 158.018C52.8849 158.118 52.7585 158.259 52.6648 158.44C52.571 158.619 52.5241 158.83 52.5241 159.071V163H50.7088ZM61.6541 165.455V156.455H63.4439V157.554H63.5249C63.6044 157.378 63.7195 157.199 63.87 157.017C64.0234 156.832 64.2223 156.679 64.4666 156.557C64.7138 156.432 65.0206 156.369 65.3871 156.369C65.8643 156.369 66.3047 156.494 66.7081 156.744C67.1115 156.991 67.4339 157.365 67.6754 157.865C67.9169 158.362 68.0376 158.986 68.0376 159.736C68.0376 160.466 67.9197 161.082 67.6839 161.585C67.451 162.085 67.1328 162.464 66.7294 162.723C66.3288 162.979 65.88 163.107 65.3828 163.107C65.0305 163.107 64.7308 163.048 64.4837 162.932C64.2393 162.815 64.0391 162.669 63.8828 162.493C63.7266 162.314 63.6072 162.134 63.5249 161.952H63.4695V165.455H61.6541ZM63.4311 159.727C63.4311 160.116 63.4851 160.456 63.593 160.746C63.701 161.036 63.8572 161.261 64.0618 161.423C64.2663 161.582 64.5149 161.662 64.8075 161.662C65.103 161.662 65.353 161.581 65.5575 161.419C65.7621 161.254 65.9169 161.027 66.022 160.737C66.13 160.445 66.1839 160.108 66.1839 159.727C66.1839 159.349 66.1314 159.017 66.0263 158.73C65.9212 158.443 65.7663 158.219 65.5618 158.057C65.3572 157.895 65.1058 157.814 64.8075 157.814C64.5121 157.814 64.2621 157.892 64.0575 158.048C63.8558 158.205 63.701 158.426 63.593 158.713C63.4851 159 63.4311 159.338 63.4311 159.727ZM71.0632 154.273V163H69.2479V154.273H71.0632ZM75.4748 163.128C74.8129 163.128 74.2404 162.987 73.7575 162.706C73.2773 162.422 72.9066 162.027 72.6452 161.521C72.3839 161.013 72.2532 160.423 72.2532 159.753C72.2532 159.077 72.3839 158.486 72.6452 157.98C72.9066 157.472 73.2773 157.077 73.7575 156.795C74.2404 156.511 74.8129 156.369 75.4748 156.369C76.1367 156.369 76.7077 156.511 77.1879 156.795C77.6708 157.077 78.043 157.472 78.3043 157.98C78.5657 158.486 78.6964 159.077 78.6964 159.753C78.6964 160.423 78.5657 161.013 78.3043 161.521C78.043 162.027 77.6708 162.422 77.1879 162.706C76.7077 162.987 76.1367 163.128 75.4748 163.128ZM75.4833 161.722C75.7844 161.722 76.0359 161.636 76.2376 161.466C76.4393 161.293 76.5913 161.057 76.6935 160.759C76.7987 160.46 76.8512 160.121 76.8512 159.74C76.8512 159.359 76.7987 159.02 76.6935 158.722C76.5913 158.423 76.4393 158.187 76.2376 158.014C76.0359 157.841 75.7844 157.754 75.4833 157.754C75.1793 157.754 74.9237 157.841 74.7163 158.014C74.5117 158.187 74.3569 158.423 74.2518 158.722C74.1495 159.02 74.0984 159.359 74.0984 159.74C74.0984 160.121 74.1495 160.46 74.2518 160.759C74.3569 161.057 74.5117 161.293 74.7163 161.466C74.9237 161.636 75.1793 161.722 75.4833 161.722ZM80.7866 165.455C80.5565 165.455 80.3406 165.436 80.1388 165.399C79.94 165.365 79.7752 165.321 79.6445 165.267L80.0536 163.912C80.2667 163.977 80.4585 164.013 80.6289 164.018C80.8022 164.024 80.9513 163.984 81.0763 163.899C81.2042 163.814 81.3079 163.669 81.3874 163.464L81.494 163.188L79.146 156.455H81.055L82.4102 161.261H82.4783L83.8462 156.455H85.7681L83.2241 163.707C83.1019 164.06 82.9357 164.366 82.7255 164.628C82.5181 164.892 82.2553 165.095 81.9371 165.237C81.619 165.382 81.2354 165.455 80.7866 165.455ZM89.4691 163.128C88.7958 163.128 88.2163 162.991 87.7305 162.719C87.2475 162.443 86.8754 162.054 86.614 161.551C86.3526 161.045 86.2219 160.447 86.2219 159.757C86.2219 159.084 86.3526 158.493 86.614 157.984C86.8754 157.476 87.2433 157.08 87.7177 156.795C88.195 156.511 88.7546 156.369 89.3967 156.369C89.8285 156.369 90.2305 156.439 90.6026 156.578C90.9776 156.714 91.3043 156.92 91.5827 157.196C91.864 157.472 92.0827 157.818 92.239 158.236C92.3952 158.651 92.4734 159.136 92.4734 159.693V160.192H86.9464V159.067H90.7646C90.7646 158.805 90.7077 158.574 90.5941 158.372C90.4805 158.17 90.3228 158.013 90.1211 157.899C89.9222 157.783 89.6907 157.724 89.4265 157.724C89.1509 157.724 88.9066 157.788 88.6935 157.916C88.4833 158.041 88.3185 158.21 88.1992 158.423C88.0799 158.634 88.0188 158.868 88.016 159.126V160.196C88.016 160.52 88.0756 160.8 88.195 161.036C88.3171 161.271 88.489 161.453 88.7106 161.581C88.9322 161.709 89.195 161.773 89.4989 161.773C89.7006 161.773 89.8853 161.744 90.0529 161.688C90.2205 161.631 90.364 161.545 90.4833 161.432C90.6026 161.318 90.6935 161.179 90.756 161.014L92.435 161.125C92.3498 161.528 92.1751 161.881 91.9109 162.182C91.6495 162.48 91.3114 162.713 90.8967 162.881C90.4847 163.045 90.0089 163.128 89.4691 163.128ZM96.641 163.128C95.9677 163.128 95.3881 162.991 94.9023 162.719C94.4194 162.443 94.0472 162.054 93.7859 161.551C93.5245 161.045 93.3938 160.447 93.3938 159.757C93.3938 159.084 93.5245 158.493 93.7859 157.984C94.0472 157.476 94.4151 157.08 94.8896 156.795C95.3668 156.511 95.9265 156.369 96.5685 156.369C97.0004 156.369 97.4023 156.439 97.7745 156.578C98.1495 156.714 98.4762 156.92 98.7546 157.196C99.0359 157.472 99.2546 157.818 99.4109 158.236C99.5671 158.651 99.6452 159.136 99.6452 159.693V160.192H94.1183V159.067H97.9364C97.9364 158.805 97.8796 158.574 97.766 158.372C97.6523 158.17 97.4947 158.013 97.293 157.899C97.0941 157.783 96.8626 157.724 96.5984 157.724C96.3228 157.724 96.0785 157.788 95.8654 157.916C95.6552 158.041 95.4904 158.21 95.3711 158.423C95.2518 158.634 95.1907 158.868 95.1879 159.126V160.196C95.1879 160.52 95.2475 160.8 95.3668 161.036C95.489 161.271 95.6609 161.453 95.8825 161.581C96.104 161.709 96.3668 161.773 96.6708 161.773C96.8725 161.773 97.0572 161.744 97.2248 161.688C97.3924 161.631 97.5359 161.545 97.6552 161.432C97.7745 161.318 97.8654 161.179 97.9279 161.014L99.6069 161.125C99.5217 161.528 99.3469 161.881 99.0827 162.182C98.8214 162.48 98.4833 162.713 98.0685 162.881C97.6566 163.045 97.1808 163.128 96.641 163.128ZM103.641 163V154.273H105.487V161.479H109.228V163H103.641ZM110.416 163V156.455H112.231V163H110.416ZM111.328 155.611C111.058 155.611 110.826 155.521 110.633 155.342C110.443 155.161 110.348 154.943 110.348 154.69C110.348 154.44 110.443 154.226 110.633 154.047C110.826 153.865 111.058 153.774 111.328 153.774C111.598 153.774 111.828 153.865 112.018 154.047C112.211 154.226 112.308 154.44 112.308 154.69C112.308 154.943 112.211 155.161 112.018 155.342C111.828 155.521 111.598 155.611 111.328 155.611ZM119.131 158.321L117.469 158.423C117.441 158.281 117.38 158.153 117.286 158.04C117.192 157.923 117.069 157.831 116.915 157.763C116.765 157.692 116.585 157.656 116.374 157.656C116.093 157.656 115.856 157.716 115.663 157.835C115.469 157.952 115.373 158.108 115.373 158.304C115.373 158.46 115.435 158.592 115.56 158.7C115.685 158.808 115.9 158.895 116.204 158.96L117.388 159.199C118.025 159.33 118.499 159.54 118.812 159.83C119.124 160.119 119.281 160.5 119.281 160.972C119.281 161.401 119.154 161.777 118.901 162.101C118.651 162.425 118.308 162.678 117.87 162.859C117.435 163.038 116.934 163.128 116.366 163.128C115.499 163.128 114.809 162.947 114.295 162.587C113.783 162.223 113.484 161.729 113.396 161.104L115.181 161.01C115.235 161.274 115.366 161.476 115.573 161.615C115.781 161.751 116.046 161.82 116.37 161.82C116.688 161.82 116.944 161.759 117.137 161.636C117.333 161.511 117.433 161.351 117.435 161.155C117.433 160.99 117.363 160.855 117.227 160.75C117.09 160.642 116.88 160.56 116.596 160.503L115.462 160.277C114.823 160.149 114.347 159.928 114.035 159.612C113.725 159.297 113.57 158.895 113.57 158.406C113.57 157.986 113.684 157.624 113.911 157.32C114.141 157.016 114.464 156.781 114.879 156.616C115.296 156.452 115.785 156.369 116.344 156.369C117.171 156.369 117.822 156.544 118.296 156.893C118.773 157.243 119.052 157.719 119.131 158.321ZM123.905 156.455V157.818H119.963V156.455H123.905ZM120.858 154.886H122.674V160.989C122.674 161.156 122.699 161.287 122.75 161.381C122.801 161.472 122.873 161.536 122.963 161.572C123.057 161.609 123.165 161.628 123.287 161.628C123.373 161.628 123.458 161.621 123.543 161.607C123.628 161.589 123.694 161.577 123.739 161.568L124.025 162.919C123.934 162.947 123.806 162.98 123.641 163.017C123.476 163.057 123.276 163.081 123.04 163.089C122.603 163.107 122.219 163.048 121.89 162.915C121.563 162.781 121.309 162.574 121.127 162.293C120.945 162.011 120.855 161.656 120.858 161.227V154.886Z" fill="black"/>
<line x1="54" y1="186.5" x2="114" y2="186.5" stroke="black"/>
<line x1="54" y1="198.5" x2="114" y2="198.5" stroke="black"/>
<line x1="54" y1="207.5" x2="114" y2="207.5" stroke="black"/>
<line x1="53" y1="221.5" x2="113" y2="221.5" stroke="black"/>
<line x1="53" y1="233.5" x2="113" y2="233.5" stroke="black"/>
<line x1="54" y1="246.5" x2="114" y2="246.5" stroke="black"/>
<rect x="176" y="141" width="44" height="44" rx="10" fill="#09CAF4"/>
<rect x="176" y="226" width="44" height="44" rx="10" fill="#09CAF4"/>
<rect x="233" y="24" width="54" height="246" rx="5" fill="#09CAF4"/>
<line x1="186" y1="164" x2="209" y2="164" stroke="black" stroke-width="4"/>
<line x1="187" y1="249" x2="210" y2="249" stroke="black" stroke-width="4"/>
<line x1="199" y1="238" x2="199" y2="261" stroke="black" stroke-width="4"/>
</svg>
