<svg width="311" height="292" viewBox="0 0 311 292" fill="none" xmlns="http://www.w3.org/2000/svg">
<rect width="311" height="292" rx="10" fill="#00D1FF"/>
<rect x="46" y="196" width="219" height="70" rx="10" fill="#E7E7E7"/>
<rect x="211" y="31" width="69" height="47" rx="10" fill="#FFFDFD"/>
<line x1="217" y1="37.5" x2="226" y2="37.5" stroke="black"/>
<line x1="217" y1="40.5" x2="226" y2="40.5" stroke="black"/>
<path d="M245.7 47.21C245.526 47.0739 245.311 47 245.09 47C244.869 47 244.654 47.0739 244.48 47.21C242.58 48.66 236.97 53.39 237 58.9C237 63.36 240.63 67 245.1 67C249.57 67 253.2 63.37 253.2 58.91C253.21 53.48 247.59 48.67 245.7 47.21Z" stroke="#00B2FF" stroke-width="1.5" stroke-miterlimit="10"/>
<rect x="130" y="83" width="50" height="89" fill="#514E4E"/>
<rect x="171.176" y="88" width="4.90196" height="1" fill="#4BF110"/>
<rect x="134.902" y="89" width="0.980392" height="2" fill="#D9D9D9"/>
<rect x="135.882" y="88" width="0.980392" height="3" fill="#D9D9D9"/>
<rect x="136.863" y="87" width="0.980392" height="4" fill="#D9D9D9"/>
<rect x="137.843" y="86" width="0.980392" height="5" fill="#D9D9D9"/>
<path d="M148.539 122.99C152.755 119.67 158.235 119.67 162.451 122.99M145.686 119.51C151.627 114.83 159.353 114.83 165.294 119.51M150.382 126.64C153.471 124.2 157.5 124.2 160.588 126.64M152.941 130.3C154.49 129.08 156.5 129.08 158.049 130.3" stroke="white" stroke-width="1.5" stroke-linecap="round" stroke-linejoin="round"/>
<rect x="34" y="26" width="90" height="52" rx="10" fill="white"/>
<rect x="45" y="30.5614" width="69" height="42.8772" rx="10" fill="#514E4E"/>
<line x1="51" y1="36.4474" x2="64" y2="36.4474" stroke="white"/>
<line x1="51" y1="39.1842" x2="64" y2="39.1842" stroke="white"/>
<line x1="51" y1="41.921" x2="64" y2="41.921" stroke="white"/>
<path d="M71.9602 63.2456L78.4659 50.3763V50.2627H70.9659V48.7002H80.2841V50.3479L73.8068 63.2456H71.9602ZM82.9315 63.2456V61.9672L87.7326 56.7115C88.296 56.096 88.7601 55.5609 89.1246 55.1064C89.4892 54.6471 89.7591 54.2162 89.9343 53.8138C90.1142 53.4066 90.2042 52.9805 90.2042 52.5354C90.2042 52.024 90.0811 51.5813 89.8349 51.2073C89.5934 50.8332 89.262 50.5444 88.8406 50.3408C88.4192 50.1372 87.9457 50.0354 87.4201 50.0354C86.8614 50.0354 86.3737 50.1514 85.957 50.3834C85.5451 50.6107 85.2255 50.9303 84.9982 51.3422C84.7757 51.7541 84.6644 52.2371 84.6644 52.7911H82.9883C82.9883 51.9388 83.1848 51.1907 83.5778 50.5467C83.9708 49.9028 84.5058 49.4009 85.1829 49.0411C85.8647 48.6812 86.6294 48.5013 87.4769 48.5013C88.3292 48.5013 89.0844 48.6812 89.7425 49.0411C90.4007 49.4009 90.9168 49.8862 91.2908 50.497C91.6649 51.1078 91.8519 51.7873 91.8519 52.5354C91.8519 53.0704 91.7549 53.5936 91.5607 54.105C91.3713 54.6116 91.0399 55.1774 90.5664 55.8024C90.0977 56.4227 89.4466 57.1803 88.6133 58.0752L85.3462 61.5695V61.6831H92.1076V63.2456H82.9315Z" fill="white"/>
<path d="M96.5 44.7017C96.5 45.643 95.6488 46.4824 94.5 46.4824C93.3512 46.4824 92.5 45.643 92.5 44.7017C92.5 43.7605 93.3512 42.921 94.5 42.921C95.6488 42.921 96.5 43.7605 96.5 44.7017Z" stroke="white"/>
<rect x="152" y="207" width="25" height="58" fill="#676464"/>
<path d="M130 207.806L162 201V271L130 265.167V207.806Z" fill="#8486AD"/>
<ellipse cx="157.5" cy="238.5" rx="1.5" ry="2.5" fill="#D9D9D9"/>
<path d="M185.5 243.5C189.5 238.5 189.5 237 185.5 231.5" stroke="black"/>
<path d="M121 243C117 238 117 236.5 121 231" stroke="black"/>
<path d="M187 246C193.667 238.5 193.667 236.25 187 228" stroke="black"/>
<path d="M120 246C113.333 238.5 113.333 236.25 120 228" stroke="black"/>
<path d="M189 249C198.333 239.417 198.333 236.542 189 226" stroke="black"/>
<path d="M118 249C108.667 239.417 108.667 236.542 118 226" stroke="black"/>
<rect x="204" y="226" width="14" height="15" rx="2" fill="#B4B4B4"/>
<rect x="205" y="228" width="12" height="5" rx="2" fill="#676464"/>
<rect x="206" y="237" width="10" height="2" rx="1" fill="#676464"/>
<line x1="80" y1="78" x2="80" y2="130" stroke="black" stroke-width="2"/>
<path d="M130 130L120 124.226V135.774L130 130ZM79 131H121V129H79V131Z" fill="black"/>
<line x1="246" y1="78" x2="246" y2="131" stroke="black" stroke-width="2"/>
<path d="M180 130L190 135.774V124.226L180 130ZM246 129H189V131H246V129Z" fill="black"/>
<path d="M155.979 172L150.258 182.03L161.805 181.97L155.979 172ZM157.105 195.995L157.026 180.995L155.026 181.005L155.105 196.005L157.105 195.995Z" fill="black"/>
</svg>
