<svg width="311" height="292" viewBox="0 0 311 292" fill="none" xmlns="http://www.w3.org/2000/svg">
<rect width="311" height="292" rx="10" fill="#35CE4E"/>
<rect x="146" y="33" width="129" height="227" rx="10" fill="black"/>
<path d="M164.91 115V103.364H172.751V105.392H167.37V108.165H172.347V110.193H167.37V112.972H172.773V115H164.91ZM174.661 115V106.273H176.968V107.812H177.07C177.252 107.301 177.555 106.898 177.979 106.602C178.404 106.307 178.911 106.159 179.502 106.159C180.101 106.159 180.61 106.309 181.031 106.608C181.451 106.903 181.731 107.305 181.871 107.812H181.962C182.14 107.312 182.462 106.913 182.928 106.614C183.398 106.311 183.953 106.159 184.593 106.159C185.407 106.159 186.068 106.419 186.576 106.938C187.087 107.453 187.343 108.184 187.343 109.131V115H184.928V109.608C184.928 109.123 184.799 108.759 184.542 108.517C184.284 108.275 183.962 108.153 183.576 108.153C183.137 108.153 182.794 108.294 182.548 108.574C182.301 108.85 182.178 109.216 182.178 109.67V115H179.832V109.557C179.832 109.129 179.709 108.788 179.462 108.534C179.22 108.28 178.9 108.153 178.502 108.153C178.233 108.153 177.991 108.222 177.775 108.358C177.563 108.491 177.394 108.678 177.269 108.92C177.144 109.159 177.082 109.439 177.082 109.761V115H174.661ZM193.232 115.17C192.335 115.17 191.562 114.989 190.914 114.625C190.27 114.258 189.774 113.739 189.425 113.068C189.077 112.394 188.903 111.597 188.903 110.676C188.903 109.778 189.077 108.991 189.425 108.312C189.774 107.634 190.264 107.106 190.897 106.727C191.533 106.348 192.28 106.159 193.136 106.159C193.711 106.159 194.247 106.252 194.744 106.438C195.244 106.619 195.679 106.894 196.05 107.261C196.425 107.629 196.717 108.091 196.925 108.648C197.134 109.201 197.238 109.848 197.238 110.591V111.256H189.869V109.756H194.96C194.96 109.407 194.884 109.098 194.732 108.83C194.581 108.561 194.371 108.35 194.102 108.199C193.836 108.044 193.528 107.966 193.175 107.966C192.808 107.966 192.482 108.051 192.198 108.222C191.918 108.388 191.698 108.614 191.539 108.898C191.38 109.178 191.299 109.491 191.295 109.835V111.261C191.295 111.693 191.374 112.066 191.533 112.381C191.696 112.695 191.925 112.938 192.221 113.108C192.516 113.278 192.867 113.364 193.272 113.364C193.541 113.364 193.787 113.326 194.011 113.25C194.234 113.174 194.425 113.061 194.585 112.909C194.744 112.758 194.865 112.572 194.948 112.352L197.187 112.5C197.073 113.038 196.84 113.508 196.488 113.909C196.139 114.307 195.689 114.617 195.136 114.841C194.586 115.061 193.952 115.17 193.232 115.17ZM198.817 115V106.273H201.164V107.795H201.255C201.414 107.254 201.681 106.845 202.056 106.568C202.431 106.288 202.863 106.148 203.352 106.148C203.473 106.148 203.603 106.155 203.744 106.17C203.884 106.186 204.007 106.206 204.113 106.233V108.381C203.999 108.347 203.842 108.316 203.641 108.29C203.441 108.263 203.257 108.25 203.09 108.25C202.734 108.25 202.416 108.328 202.136 108.483C201.859 108.634 201.639 108.847 201.477 109.119C201.317 109.392 201.238 109.706 201.238 110.062V115H198.817ZM208.89 118.455C208.106 118.455 207.433 118.347 206.873 118.131C206.316 117.919 205.873 117.629 205.543 117.261C205.214 116.894 205 116.481 204.901 116.023L207.14 115.722C207.208 115.896 207.316 116.059 207.464 116.21C207.612 116.362 207.807 116.483 208.049 116.574C208.295 116.669 208.594 116.716 208.947 116.716C209.473 116.716 209.907 116.587 210.248 116.33C210.593 116.076 210.765 115.65 210.765 115.051V113.455H210.663C210.557 113.697 210.397 113.926 210.185 114.142C209.973 114.358 209.701 114.534 209.367 114.67C209.034 114.807 208.636 114.875 208.174 114.875C207.519 114.875 206.922 114.723 206.384 114.42C205.85 114.114 205.424 113.646 205.106 113.017C204.791 112.384 204.634 111.585 204.634 110.619C204.634 109.631 204.795 108.805 205.117 108.142C205.439 107.479 205.867 106.983 206.401 106.653C206.939 106.324 207.528 106.159 208.168 106.159C208.657 106.159 209.066 106.242 209.396 106.409C209.725 106.572 209.99 106.777 210.191 107.023C210.396 107.265 210.553 107.504 210.663 107.739H210.754V106.273H213.157V115.085C213.157 115.828 212.975 116.449 212.612 116.949C212.248 117.449 211.744 117.824 211.1 118.074C210.46 118.328 209.723 118.455 208.89 118.455ZM208.941 113.057C209.331 113.057 209.661 112.96 209.93 112.767C210.202 112.57 210.411 112.29 210.555 111.926C210.702 111.559 210.776 111.119 210.776 110.608C210.776 110.097 210.704 109.653 210.56 109.278C210.416 108.9 210.208 108.606 209.935 108.398C209.663 108.189 209.331 108.085 208.941 108.085C208.543 108.085 208.208 108.193 207.935 108.409C207.663 108.621 207.456 108.917 207.316 109.295C207.176 109.674 207.106 110.112 207.106 110.608C207.106 111.112 207.176 111.547 207.316 111.915C207.46 112.278 207.666 112.561 207.935 112.761C208.208 112.958 208.543 113.057 208.941 113.057ZM219.06 115.17C218.163 115.17 217.39 114.989 216.742 114.625C216.098 114.258 215.602 113.739 215.254 113.068C214.905 112.394 214.731 111.597 214.731 110.676C214.731 109.778 214.905 108.991 215.254 108.312C215.602 107.634 216.093 107.106 216.725 106.727C217.362 106.348 218.108 106.159 218.964 106.159C219.54 106.159 220.076 106.252 220.572 106.438C221.072 106.619 221.507 106.894 221.879 107.261C222.254 107.629 222.545 108.091 222.754 108.648C222.962 109.201 223.066 109.848 223.066 110.591V111.256H215.697V109.756H220.788C220.788 109.407 220.712 109.098 220.56 108.83C220.409 108.561 220.199 108.35 219.93 108.199C219.665 108.044 219.356 107.966 219.004 107.966C218.636 107.966 218.31 108.051 218.026 108.222C217.746 108.388 217.526 108.614 217.367 108.898C217.208 109.178 217.127 109.491 217.123 109.835V111.261C217.123 111.693 217.202 112.066 217.362 112.381C217.524 112.695 217.754 112.938 218.049 113.108C218.344 113.278 218.695 113.364 219.1 113.364C219.369 113.364 219.615 113.326 219.839 113.25C220.062 113.174 220.254 113.061 220.413 112.909C220.572 112.758 220.693 112.572 220.776 112.352L223.015 112.5C222.901 113.038 222.668 113.508 222.316 113.909C221.968 114.307 221.517 114.617 220.964 114.841C220.415 115.061 219.78 115.17 219.06 115.17ZM227.066 109.955V115H224.646V106.273H226.952V107.812H227.055C227.248 107.305 227.572 106.903 228.026 106.608C228.481 106.309 229.032 106.159 229.68 106.159C230.286 106.159 230.814 106.292 231.265 106.557C231.716 106.822 232.066 107.201 232.316 107.693C232.566 108.182 232.691 108.765 232.691 109.443V115H230.271V109.875C230.274 109.341 230.138 108.924 229.862 108.625C229.585 108.322 229.204 108.17 228.719 108.17C228.394 108.17 228.106 108.241 227.856 108.381C227.61 108.521 227.416 108.725 227.276 108.994C227.14 109.259 227.07 109.58 227.066 109.955ZM238.542 115.17C237.648 115.17 236.879 114.981 236.235 114.602C235.595 114.22 235.103 113.689 234.758 113.011C234.417 112.333 234.246 111.553 234.246 110.67C234.246 109.777 234.419 108.992 234.763 108.318C235.112 107.64 235.606 107.112 236.246 106.733C236.887 106.35 237.648 106.159 238.531 106.159C239.292 106.159 239.959 106.297 240.531 106.574C241.103 106.85 241.555 107.239 241.888 107.739C242.222 108.239 242.406 108.826 242.44 109.5H240.156C240.091 109.064 239.921 108.714 239.644 108.449C239.371 108.18 239.013 108.045 238.57 108.045C238.195 108.045 237.868 108.148 237.587 108.352C237.311 108.553 237.095 108.847 236.94 109.233C236.784 109.619 236.707 110.087 236.707 110.636C236.707 111.193 236.782 111.667 236.934 112.057C237.089 112.447 237.307 112.744 237.587 112.949C237.868 113.153 238.195 113.256 238.57 113.256C238.847 113.256 239.095 113.199 239.315 113.085C239.538 112.972 239.722 112.807 239.866 112.591C240.013 112.371 240.11 112.108 240.156 111.801H242.44C242.402 112.468 242.22 113.055 241.894 113.562C241.572 114.066 241.127 114.46 240.559 114.744C239.991 115.028 239.318 115.17 238.542 115.17ZM245.484 118.273C245.177 118.273 244.889 118.248 244.62 118.199C244.355 118.153 244.135 118.095 243.961 118.023L244.506 116.216C244.79 116.303 245.046 116.35 245.273 116.358C245.504 116.366 245.703 116.313 245.87 116.199C246.04 116.085 246.179 115.892 246.285 115.619L246.427 115.25L243.296 106.273H245.842L247.648 112.682H247.739L249.563 106.273H252.126L248.734 115.943C248.571 116.413 248.349 116.822 248.069 117.17C247.792 117.523 247.442 117.794 247.018 117.983C246.594 118.176 246.082 118.273 245.484 118.273ZM184.08 134H181.443L185.46 122.364H188.631L192.642 134H190.006L187.091 125.023H187L184.08 134ZM183.915 129.426H190.142V131.347H183.915V129.426ZM197.534 134.17C196.64 134.17 195.871 133.981 195.227 133.602C194.587 133.22 194.095 132.689 193.75 132.011C193.409 131.333 193.239 130.553 193.239 129.67C193.239 128.777 193.411 127.992 193.756 127.318C194.104 126.64 194.598 126.112 195.239 125.733C195.879 125.35 196.64 125.159 197.523 125.159C198.284 125.159 198.951 125.297 199.523 125.574C200.095 125.85 200.547 126.239 200.881 126.739C201.214 127.239 201.398 127.826 201.432 128.5H199.148C199.083 128.064 198.913 127.714 198.636 127.449C198.364 127.18 198.006 127.045 197.562 127.045C197.188 127.045 196.86 127.148 196.58 127.352C196.303 127.553 196.087 127.847 195.932 128.233C195.777 128.619 195.699 129.087 195.699 129.636C195.699 130.193 195.775 130.667 195.926 131.057C196.081 131.447 196.299 131.744 196.58 131.949C196.86 132.153 197.188 132.256 197.562 132.256C197.839 132.256 198.087 132.199 198.307 132.085C198.53 131.972 198.714 131.807 198.858 131.591C199.006 131.371 199.102 131.108 199.148 130.801H201.432C201.394 131.468 201.212 132.055 200.886 132.562C200.564 133.066 200.119 133.46 199.551 133.744C198.983 134.028 198.311 134.17 197.534 134.17ZM206.925 134.17C206.031 134.17 205.262 133.981 204.618 133.602C203.978 133.22 203.485 132.689 203.141 132.011C202.8 131.333 202.629 130.553 202.629 129.67C202.629 128.777 202.802 127.992 203.146 127.318C203.495 126.64 203.989 126.112 204.629 125.733C205.269 125.35 206.031 125.159 206.913 125.159C207.675 125.159 208.341 125.297 208.913 125.574C209.485 125.85 209.938 126.239 210.271 126.739C210.605 127.239 210.788 127.826 210.822 128.5H208.538C208.474 128.064 208.304 127.714 208.027 127.449C207.754 127.18 207.396 127.045 206.953 127.045C206.578 127.045 206.25 127.148 205.97 127.352C205.694 127.553 205.478 127.847 205.322 128.233C205.167 128.619 205.089 129.087 205.089 129.636C205.089 130.193 205.165 130.667 205.317 131.057C205.472 131.447 205.69 131.744 205.97 131.949C206.25 132.153 206.578 132.256 206.953 132.256C207.23 132.256 207.478 132.199 207.697 132.085C207.921 131.972 208.105 131.807 208.249 131.591C208.396 131.371 208.493 131.108 208.538 130.801H210.822C210.785 131.468 210.603 132.055 210.277 132.562C209.955 133.066 209.51 133.46 208.942 133.744C208.374 134.028 207.701 134.17 206.925 134.17ZM216.349 134.17C215.452 134.17 214.679 133.989 214.031 133.625C213.387 133.258 212.891 132.739 212.543 132.068C212.194 131.394 212.02 130.597 212.02 129.676C212.02 128.778 212.194 127.991 212.543 127.312C212.891 126.634 213.382 126.106 214.014 125.727C214.651 125.348 215.397 125.159 216.253 125.159C216.829 125.159 217.365 125.252 217.861 125.438C218.361 125.619 218.796 125.894 219.168 126.261C219.543 126.629 219.834 127.091 220.043 127.648C220.251 128.201 220.355 128.848 220.355 129.591V130.256H212.986V128.756H218.077C218.077 128.407 218.001 128.098 217.849 127.83C217.698 127.561 217.488 127.35 217.219 127.199C216.954 127.044 216.645 126.966 216.293 126.966C215.925 126.966 215.599 127.051 215.315 127.222C215.035 127.388 214.815 127.614 214.656 127.898C214.497 128.178 214.416 128.491 214.412 128.835V130.261C214.412 130.693 214.491 131.066 214.651 131.381C214.813 131.695 215.043 131.938 215.338 132.108C215.634 132.278 215.984 132.364 216.389 132.364C216.658 132.364 216.904 132.326 217.128 132.25C217.351 132.174 217.543 132.061 217.702 131.909C217.861 131.758 217.982 131.572 218.065 131.352L220.304 131.5C220.19 132.038 219.957 132.508 219.605 132.909C219.257 133.307 218.806 133.617 218.253 133.841C217.704 134.061 217.069 134.17 216.349 134.17ZM229.196 127.761L226.98 127.898C226.942 127.708 226.861 127.538 226.736 127.386C226.611 127.231 226.446 127.108 226.241 127.017C226.041 126.922 225.8 126.875 225.52 126.875C225.145 126.875 224.829 126.955 224.571 127.114C224.313 127.269 224.185 127.477 224.185 127.739C224.185 127.947 224.268 128.123 224.435 128.267C224.601 128.411 224.887 128.527 225.293 128.614L226.872 128.932C227.721 129.106 228.353 129.386 228.77 129.773C229.187 130.159 229.395 130.667 229.395 131.295C229.395 131.867 229.226 132.369 228.889 132.801C228.556 133.233 228.098 133.57 227.514 133.812C226.935 134.051 226.266 134.17 225.509 134.17C224.353 134.17 223.433 133.93 222.747 133.449C222.065 132.964 221.666 132.305 221.548 131.472L223.929 131.347C224.001 131.699 224.175 131.968 224.452 132.153C224.728 132.335 225.082 132.426 225.514 132.426C225.938 132.426 226.279 132.345 226.537 132.182C226.798 132.015 226.931 131.801 226.935 131.54C226.931 131.32 226.838 131.14 226.656 131C226.474 130.856 226.194 130.746 225.815 130.67L224.304 130.369C223.452 130.199 222.817 129.903 222.401 129.483C221.988 129.062 221.781 128.527 221.781 127.875C221.781 127.314 221.933 126.831 222.236 126.426C222.543 126.021 222.973 125.708 223.526 125.489C224.082 125.269 224.734 125.159 225.48 125.159C226.582 125.159 227.45 125.392 228.082 125.858C228.719 126.324 229.09 126.958 229.196 127.761ZM238.18 127.761L235.964 127.898C235.927 127.708 235.845 127.538 235.72 127.386C235.595 127.231 235.43 127.108 235.226 127.017C235.025 126.922 234.785 126.875 234.504 126.875C234.129 126.875 233.813 126.955 233.555 127.114C233.298 127.269 233.169 127.477 233.169 127.739C233.169 127.947 233.252 128.123 233.419 128.267C233.586 128.411 233.872 128.527 234.277 128.614L235.857 128.932C236.705 129.106 237.338 129.386 237.754 129.773C238.171 130.159 238.379 130.667 238.379 131.295C238.379 131.867 238.211 132.369 237.874 132.801C237.54 133.233 237.082 133.57 236.499 133.812C235.919 134.051 235.25 134.17 234.493 134.17C233.338 134.17 232.417 133.93 231.732 133.449C231.05 132.964 230.65 132.305 230.533 131.472L232.913 131.347C232.985 131.699 233.16 131.968 233.436 132.153C233.713 132.335 234.067 132.426 234.499 132.426C234.923 132.426 235.264 132.345 235.521 132.182C235.783 132.015 235.915 131.801 235.919 131.54C235.915 131.32 235.822 131.14 235.641 131C235.459 130.856 235.179 130.746 234.8 130.67L233.288 130.369C232.436 130.199 231.802 129.903 231.385 129.483C230.972 129.062 230.766 128.527 230.766 127.875C230.766 127.314 230.917 126.831 231.22 126.426C231.527 126.021 231.957 125.708 232.51 125.489C233.067 125.269 233.718 125.159 234.464 125.159C235.567 125.159 236.434 125.392 237.067 125.858C237.703 126.324 238.074 126.958 238.18 127.761Z" fill="#FF0404"/>
<rect x="171" y="185" width="79" height="21" rx="10.5" fill="#00FF29"/>
<path d="M211.47 195.182C211.47 196.451 211.23 197.53 210.749 198.42C210.271 199.311 209.62 199.991 208.794 200.46C207.972 200.926 207.048 201.159 206.021 201.159C204.987 201.159 204.059 200.924 203.237 200.455C202.415 199.985 201.766 199.305 201.288 198.415C200.811 197.525 200.572 196.447 200.572 195.182C200.572 193.913 200.811 192.833 201.288 191.943C201.766 191.053 202.415 190.375 203.237 189.909C204.059 189.439 204.987 189.205 206.021 189.205C207.048 189.205 207.972 189.439 208.794 189.909C209.62 190.375 210.271 191.053 210.749 191.943C211.23 192.833 211.47 193.913 211.47 195.182ZM208.976 195.182C208.976 194.36 208.853 193.667 208.607 193.102C208.364 192.538 208.021 192.11 207.578 191.818C207.135 191.527 206.616 191.381 206.021 191.381C205.427 191.381 204.908 191.527 204.464 191.818C204.021 192.11 203.677 192.538 203.43 193.102C203.188 193.667 203.067 194.36 203.067 195.182C203.067 196.004 203.188 196.697 203.43 197.261C203.677 197.826 204.021 198.254 204.464 198.545C204.908 198.837 205.427 198.983 206.021 198.983C206.616 198.983 207.135 198.837 207.578 198.545C208.021 198.254 208.364 197.826 208.607 197.261C208.853 196.697 208.976 196.004 208.976 195.182ZM215.668 195.955V201H213.247V192.273H215.554V193.812H215.656C215.849 193.305 216.173 192.903 216.628 192.608C217.082 192.309 217.634 192.159 218.281 192.159C218.887 192.159 219.416 192.292 219.866 192.557C220.317 192.822 220.668 193.201 220.918 193.693C221.168 194.182 221.293 194.765 221.293 195.443V201H218.872V195.875C218.876 195.341 218.74 194.924 218.463 194.625C218.187 194.322 217.806 194.17 217.321 194.17C216.995 194.17 216.707 194.241 216.457 194.381C216.211 194.521 216.018 194.725 215.878 194.994C215.741 195.259 215.671 195.58 215.668 195.955Z" fill="black"/>
<rect x="160" y="52.8" width="2.77451" height="5.2" fill="#D9D9D9"/>
<rect x="162.775" y="50.2" width="2.77451" height="7.8" fill="#D9D9D9"/>
<rect x="165.549" y="47.6" width="2.77451" height="10.4" fill="#D9D9D9"/>
<rect x="168.323" y="45" width="2.77451" height="13" fill="#D9D9D9"/>
<rect x="240" y="49" width="20" height="5" fill="#4BF110"/>
<rect x="35" y="24" width="43" height="103" rx="10" fill="black"/>
<rect x="48" y="127" width="17" height="143" fill="black"/>
<circle cx="56" cy="47" r="12" fill="#FF0303"/>
<circle cx="56" cy="47" r="13.5" stroke="#CB4F4F" stroke-opacity="0.5" stroke-width="3"/>
<circle cx="56" cy="79" r="12" fill="#FDE405"/>
<circle cx="56" cy="109" r="12" fill="#00FF29"/>
<path d="M77 51L92 59.6603L92 42.3398L77 51ZM146 49.5L90.5 49.5L90.5 52.5L146 52.5L146 49.5Z" fill="black"/>
</svg>
