<svg width="312" height="292" viewBox="0 0 312 292" fill="none" xmlns="http://www.w3.org/2000/svg">
<rect width="311" height="292" rx="10" fill="#00D1FF"/>
<rect x="84" y="146" width="201" height="122" rx="10" fill="#E18CFF"/>
<rect x="27" y="26" width="77.6341" height="93" rx="10" fill="#E18CFF"/>
<path d="M37.1249 48V39.2727H40.0738C40.7585 39.2727 41.3181 39.3963 41.7528 39.6435C42.1903 39.8878 42.5141 40.2188 42.7244 40.6364C42.9346 41.054 43.0397 41.5199 43.0397 42.0341C43.0397 42.5483 42.9346 43.0156 42.7244 43.4361C42.517 43.8565 42.196 44.1918 41.7613 44.4418C41.3266 44.6889 40.7698 44.8125 40.0908 44.8125H37.9772V43.875H40.0568C40.5255 43.875 40.9019 43.794 41.186 43.6321C41.4701 43.4702 41.6761 43.2514 41.8039 42.9759C41.9346 42.6974 41.9999 42.3835 41.9999 42.0341C41.9999 41.6847 41.9346 41.3722 41.8039 41.0966C41.6761 40.821 41.4687 40.6051 41.1818 40.4489C40.8948 40.2898 40.5141 40.2102 40.0397 40.2102H38.1818V48H37.1249ZM45.6114 39.2727V48H44.6058V39.2727H45.6114ZM49.3796 48.1534C48.9648 48.1534 48.5884 48.0753 48.2503 47.919C47.9122 47.7599 47.6438 47.5312 47.4449 47.233C47.246 46.9318 47.1466 46.5682 47.1466 46.142C47.1466 45.767 47.2205 45.4631 47.3682 45.2301C47.5159 44.9943 47.7134 44.8097 47.9605 44.6761C48.2077 44.5426 48.4804 44.4432 48.7787 44.3778C49.0798 44.3097 49.3824 44.2557 49.6864 44.2159C50.0841 44.1648 50.4065 44.1264 50.6537 44.1009C50.9037 44.0724 51.0855 44.0256 51.1992 43.9602C51.3156 43.8949 51.3739 43.7812 51.3739 43.6193V43.5852C51.3739 43.1648 51.2588 42.8381 51.0287 42.6051C50.8014 42.3722 50.4563 42.2557 49.9932 42.2557C49.5131 42.2557 49.1367 42.3608 48.8639 42.571C48.5912 42.7812 48.3994 43.0057 48.2886 43.2443L47.3341 42.9034C47.5045 42.5057 47.7318 42.196 48.0159 41.9744C48.3028 41.75 48.6153 41.5937 48.9534 41.5057C49.2943 41.4148 49.6295 41.3693 49.9591 41.3693C50.1693 41.3693 50.4108 41.3949 50.6835 41.446C50.9591 41.4943 51.2247 41.5952 51.4804 41.7486C51.7389 41.902 51.9534 42.1335 52.1239 42.4432C52.2943 42.7528 52.3796 43.1676 52.3796 43.6875V48H51.3739V47.1136H51.3227C51.2545 47.2557 51.1409 47.4077 50.9818 47.5696C50.8227 47.7315 50.6111 47.8693 50.3469 47.983C50.0827 48.0966 49.7602 48.1534 49.3796 48.1534ZM49.533 47.25C49.9307 47.25 50.2659 47.1719 50.5386 47.0156C50.8142 46.8594 51.0216 46.6577 51.1608 46.4105C51.3028 46.1634 51.3739 45.9034 51.3739 45.6307V44.7102C51.3313 44.7614 51.2375 44.8082 51.0926 44.8509C50.9506 44.8906 50.7858 44.9261 50.5983 44.9574C50.4136 44.9858 50.2332 45.0114 50.0571 45.0341C49.8838 45.054 49.7432 45.071 49.6352 45.0852C49.3739 45.1193 49.1295 45.1747 48.9023 45.2514C48.6778 45.3253 48.496 45.4375 48.3568 45.5881C48.2205 45.7358 48.1523 45.9375 48.1523 46.1932C48.1523 46.5426 48.2815 46.8068 48.5401 46.9858C48.8014 47.1619 49.1324 47.25 49.533 47.25ZM54.6285 50.4545C54.458 50.4545 54.306 50.4403 54.1725 50.4119C54.039 50.3864 53.9467 50.3608 53.8955 50.3352L54.1512 49.4489C54.3955 49.5114 54.6114 49.5341 54.7989 49.517C54.9864 49.5 55.1526 49.4162 55.2975 49.2656C55.4452 49.1179 55.5802 48.8778 55.7023 48.5455L55.8898 48.0341L53.4694 41.4545H54.5603L56.3671 46.6705H56.4353L58.2421 41.4545H59.333L56.5546 48.9545C56.4296 49.2926 56.2748 49.5724 56.0901 49.794C55.9055 50.0185 55.691 50.1847 55.4467 50.2926C55.2052 50.4006 54.9325 50.4545 54.6285 50.4545ZM61.6661 39.2727V48H60.6604V39.2727H61.6661ZM63.5081 48V41.4545H64.5138V48H63.5081ZM64.0195 40.3636C63.8234 40.3636 63.6544 40.2969 63.5124 40.1634C63.3732 40.0298 63.3036 39.8693 63.3036 39.6818C63.3036 39.4943 63.3732 39.3338 63.5124 39.2003C63.6544 39.0668 63.8234 39 64.0195 39C64.2155 39 64.3831 39.0668 64.5223 39.2003C64.6644 39.3338 64.7354 39.4943 64.7354 39.6818C64.7354 39.8693 64.6644 40.0298 64.5223 40.1634C64.3831 40.2969 64.2155 40.3636 64.0195 40.3636ZM70.9921 42.9205L70.0887 43.1761C70.0319 43.0256 69.9481 42.8793 69.8373 42.7372C69.7293 42.5923 69.5816 42.473 69.3941 42.3793C69.2066 42.2855 68.9666 42.2386 68.6739 42.2386C68.2734 42.2386 67.9396 42.331 67.6725 42.5156C67.4083 42.6974 67.2762 42.929 67.2762 43.2102C67.2762 43.4602 67.3671 43.6577 67.5489 43.8026C67.7308 43.9474 68.0148 44.0682 68.4012 44.1648L69.3728 44.4034C69.958 44.5455 70.3941 44.7628 70.681 45.0554C70.968 45.3452 71.1114 45.7187 71.1114 46.1761C71.1114 46.5511 71.0035 46.8864 70.7876 47.1818C70.5745 47.4773 70.2762 47.7102 69.8927 47.8807C69.5092 48.0511 69.0631 48.1364 68.5546 48.1364C67.887 48.1364 67.3345 47.9915 66.897 47.7017C66.4595 47.4119 66.1825 46.9886 66.066 46.4318L67.0205 46.1932C67.1114 46.5455 67.2833 46.8097 67.5362 46.9858C67.7918 47.1619 68.1256 47.25 68.5376 47.25C69.0063 47.25 69.3785 47.1506 69.6541 46.9517C69.9325 46.75 70.0717 46.5085 70.0717 46.2273C70.0717 46 69.9921 45.8097 69.833 45.6562C69.6739 45.5 69.4296 45.3835 69.1001 45.3068L68.0092 45.0511C67.4097 44.9091 66.9694 44.6889 66.6881 44.3906C66.4097 44.0895 66.2705 43.7131 66.2705 43.2614C66.2705 42.892 66.3742 42.5653 66.5816 42.2812C66.7918 41.9972 67.0773 41.7741 67.4381 41.6122C67.8018 41.4503 68.2137 41.3693 68.6739 41.3693C69.3217 41.3693 69.8302 41.5114 70.1995 41.7955C70.5717 42.0795 70.8359 42.4545 70.9921 42.9205ZM75.4719 41.4545V42.3068H72.0798V41.4545H75.4719ZM73.0685 39.8864H74.0742V46.125C74.0742 46.4091 74.1153 46.6222 74.1977 46.7642C74.283 46.9034 74.3909 46.9972 74.5216 47.0455C74.6551 47.0909 74.7957 47.1136 74.9435 47.1136C75.0543 47.1136 75.1452 47.108 75.2162 47.0966C75.2872 47.0824 75.344 47.071 75.3867 47.0625L75.5912 47.9659C75.523 47.9915 75.4278 48.017 75.3057 48.0426C75.1835 48.071 75.0287 48.0852 74.8412 48.0852C74.5571 48.0852 74.2787 48.0241 74.006 47.902C73.7361 47.7798 73.5117 47.5938 73.3327 47.3438C73.1565 47.0938 73.0685 46.7784 73.0685 46.3977V39.8864Z" fill="black"/>
<line x1="36.0681" y1="103.5" x2="92.4453" y2="103.5" stroke="black"/>
<line x1="36.0681" y1="59.5" x2="92.4453" y2="59.5" stroke="black"/>
<line x1="36.0681" y1="70.5" x2="92.4453" y2="70.5" stroke="black"/>
<line x1="36.0681" y1="82.5" x2="92.4453" y2="82.5" stroke="black"/>
<line x1="36.0681" y1="93.5" x2="92.4453" y2="93.5" stroke="black"/>
<rect x="112" y="172" width="146" height="71" fill="black"/>
<path d="M152.057 156.273H153.318L156.284 163.517H156.386L159.352 156.273H160.614V165H159.625V158.369H159.54L156.812 165H155.858L153.131 158.369H153.045V165H152.057V156.273ZM165.341 165.136C164.71 165.136 164.166 164.997 163.708 164.719C163.254 164.438 162.903 164.045 162.656 163.543C162.412 163.037 162.289 162.449 162.289 161.778C162.289 161.108 162.412 160.517 162.656 160.006C162.903 159.491 163.247 159.091 163.687 158.804C164.13 158.514 164.647 158.369 165.238 158.369C165.579 158.369 165.916 158.426 166.248 158.54C166.581 158.653 166.883 158.838 167.156 159.094C167.429 159.347 167.646 159.682 167.808 160.099C167.97 160.517 168.051 161.031 168.051 161.642V162.068H163.005V161.199H167.028C167.028 160.83 166.954 160.5 166.806 160.21C166.662 159.92 166.454 159.692 166.184 159.524C165.917 159.357 165.602 159.273 165.238 159.273C164.838 159.273 164.491 159.372 164.199 159.571C163.909 159.767 163.686 160.023 163.529 160.338C163.373 160.653 163.295 160.991 163.295 161.352V161.932C163.295 162.426 163.38 162.845 163.551 163.189C163.724 163.53 163.964 163.79 164.271 163.969C164.578 164.145 164.934 164.233 165.341 164.233C165.605 164.233 165.843 164.196 166.056 164.122C166.272 164.045 166.458 163.932 166.615 163.781C166.771 163.628 166.892 163.437 166.977 163.21L167.949 163.483C167.846 163.812 167.674 164.102 167.433 164.352C167.191 164.599 166.893 164.793 166.538 164.932C166.183 165.068 165.784 165.136 165.341 165.136ZM172.052 165.136C171.507 165.136 171.025 164.999 170.608 164.723C170.19 164.445 169.863 164.053 169.627 163.547C169.392 163.038 169.274 162.438 169.274 161.744C169.274 161.057 169.392 160.46 169.627 159.955C169.863 159.449 170.191 159.058 170.612 158.783C171.032 158.507 171.518 158.369 172.069 158.369C172.495 158.369 172.832 158.44 173.079 158.582C173.329 158.722 173.52 158.881 173.65 159.06C173.784 159.236 173.887 159.381 173.961 159.494H174.047V156.273H175.052V165H174.081V163.994H173.961C173.887 164.114 173.782 164.264 173.646 164.446C173.51 164.625 173.315 164.786 173.062 164.928C172.809 165.067 172.473 165.136 172.052 165.136ZM172.189 164.233C172.592 164.233 172.933 164.128 173.211 163.918C173.49 163.705 173.701 163.411 173.846 163.036C173.991 162.658 174.064 162.222 174.064 161.727C174.064 161.239 173.993 160.811 173.85 160.445C173.708 160.075 173.498 159.788 173.22 159.584C172.941 159.376 172.598 159.273 172.189 159.273C171.762 159.273 171.407 159.382 171.123 159.601C170.842 159.817 170.63 160.111 170.488 160.483C170.349 160.852 170.279 161.267 170.279 161.727C170.279 162.193 170.35 162.616 170.493 162.997C170.637 163.375 170.85 163.676 171.132 163.901C171.416 164.122 171.768 164.233 172.189 164.233ZM177.034 165V158.455H178.039V165H177.034ZM177.545 157.364C177.349 157.364 177.18 157.297 177.038 157.163C176.899 157.03 176.829 156.869 176.829 156.682C176.829 156.494 176.899 156.334 177.038 156.2C177.18 156.067 177.349 156 177.545 156C177.741 156 177.909 156.067 178.048 156.2C178.19 156.334 178.261 156.494 178.261 156.682C178.261 156.869 178.19 157.03 178.048 157.163C177.909 157.297 177.741 157.364 177.545 157.364ZM181.808 165.153C181.393 165.153 181.016 165.075 180.678 164.919C180.34 164.76 180.072 164.531 179.873 164.233C179.674 163.932 179.575 163.568 179.575 163.142C179.575 162.767 179.648 162.463 179.796 162.23C179.944 161.994 180.141 161.81 180.388 161.676C180.636 161.543 180.908 161.443 181.207 161.378C181.508 161.31 181.81 161.256 182.114 161.216C182.512 161.165 182.835 161.126 183.082 161.101C183.332 161.072 183.513 161.026 183.627 160.96C183.744 160.895 183.802 160.781 183.802 160.619V160.585C183.802 160.165 183.687 159.838 183.457 159.605C183.229 159.372 182.884 159.256 182.421 159.256C181.941 159.256 181.565 159.361 181.292 159.571C181.019 159.781 180.827 160.006 180.717 160.244L179.762 159.903C179.933 159.506 180.16 159.196 180.444 158.974C180.731 158.75 181.043 158.594 181.381 158.506C181.722 158.415 182.058 158.369 182.387 158.369C182.597 158.369 182.839 158.395 183.112 158.446C183.387 158.494 183.653 158.595 183.908 158.749C184.167 158.902 184.381 159.134 184.552 159.443C184.722 159.753 184.808 160.168 184.808 160.688V165H183.802V164.114H183.751C183.683 164.256 183.569 164.408 183.41 164.57C183.251 164.732 183.039 164.869 182.775 164.983C182.511 165.097 182.188 165.153 181.808 165.153ZM181.961 164.25C182.359 164.25 182.694 164.172 182.967 164.016C183.242 163.859 183.45 163.658 183.589 163.411C183.731 163.163 183.802 162.903 183.802 162.631V161.71C183.759 161.761 183.665 161.808 183.521 161.851C183.379 161.891 183.214 161.926 183.026 161.957C182.842 161.986 182.661 162.011 182.485 162.034C182.312 162.054 182.171 162.071 182.063 162.085C181.802 162.119 181.558 162.175 181.33 162.251C181.106 162.325 180.924 162.437 180.785 162.588C180.648 162.736 180.58 162.937 180.58 163.193C180.58 163.543 180.71 163.807 180.968 163.986C181.229 164.162 181.56 164.25 181.961 164.25ZM190.154 165V156.273H193.103C193.788 156.273 194.348 156.396 194.782 156.643C195.22 156.888 195.544 157.219 195.754 157.636C195.964 158.054 196.069 158.52 196.069 159.034C196.069 159.548 195.964 160.016 195.754 160.436C195.547 160.857 195.225 161.192 194.791 161.442C194.356 161.689 193.799 161.812 193.12 161.812H191.007V160.875H193.086C193.555 160.875 193.931 160.794 194.216 160.632C194.5 160.47 194.706 160.251 194.833 159.976C194.964 159.697 195.029 159.384 195.029 159.034C195.029 158.685 194.964 158.372 194.833 158.097C194.706 157.821 194.498 157.605 194.211 157.449C193.924 157.29 193.544 157.21 193.069 157.21H191.211V165H190.154ZM198.641 156.273V165H197.635V156.273H198.641ZM202.409 165.153C201.994 165.153 201.618 165.075 201.28 164.919C200.942 164.76 200.673 164.531 200.474 164.233C200.276 163.932 200.176 163.568 200.176 163.142C200.176 162.767 200.25 162.463 200.398 162.23C200.545 161.994 200.743 161.81 200.99 161.676C201.237 161.543 201.51 161.443 201.808 161.378C202.109 161.31 202.412 161.256 202.716 161.216C203.114 161.165 203.436 161.126 203.683 161.101C203.933 161.072 204.115 161.026 204.229 160.96C204.345 160.895 204.403 160.781 204.403 160.619V160.585C204.403 160.165 204.288 159.838 204.058 159.605C203.831 159.372 203.486 159.256 203.023 159.256C202.543 159.256 202.166 159.361 201.893 159.571C201.621 159.781 201.429 160.006 201.318 160.244L200.364 159.903C200.534 159.506 200.761 159.196 201.045 158.974C201.332 158.75 201.645 158.594 201.983 158.506C202.324 158.415 202.659 158.369 202.989 158.369C203.199 158.369 203.44 158.395 203.713 158.446C203.989 158.494 204.254 158.595 204.51 158.749C204.768 158.902 204.983 159.134 205.153 159.443C205.324 159.753 205.409 160.168 205.409 160.688V165H204.403V164.114H204.352C204.284 164.256 204.17 164.408 204.011 164.57C203.852 164.732 203.641 164.869 203.376 164.983C203.112 165.097 202.79 165.153 202.409 165.153ZM202.562 164.25C202.96 164.25 203.295 164.172 203.568 164.016C203.844 163.859 204.051 163.658 204.19 163.411C204.332 163.163 204.403 162.903 204.403 162.631V161.71C204.361 161.761 204.267 161.808 204.122 161.851C203.98 161.891 203.815 161.926 203.628 161.957C203.443 161.986 203.263 162.011 203.087 162.034C202.913 162.054 202.773 162.071 202.665 162.085C202.403 162.119 202.159 162.175 201.932 162.251C201.707 162.325 201.526 162.437 201.386 162.588C201.25 162.736 201.182 162.937 201.182 163.193C201.182 163.543 201.311 163.807 201.57 163.986C201.831 164.162 202.162 164.25 202.562 164.25ZM207.658 167.455C207.488 167.455 207.336 167.44 207.202 167.412C207.069 167.386 206.976 167.361 206.925 167.335L207.181 166.449C207.425 166.511 207.641 166.534 207.828 166.517C208.016 166.5 208.182 166.416 208.327 166.266C208.475 166.118 208.61 165.878 208.732 165.545L208.919 165.034L206.499 158.455H207.59L209.397 163.67H209.465L211.272 158.455H212.363L209.584 165.955C209.459 166.293 209.304 166.572 209.12 166.794C208.935 167.018 208.721 167.185 208.476 167.293C208.235 167.401 207.962 167.455 207.658 167.455ZM216.2 165.136C215.569 165.136 215.025 164.997 214.568 164.719C214.113 164.438 213.762 164.045 213.515 163.543C213.271 163.037 213.149 162.449 213.149 161.778C213.149 161.108 213.271 160.517 213.515 160.006C213.762 159.491 214.106 159.091 214.547 158.804C214.99 158.514 215.507 158.369 216.098 158.369C216.439 158.369 216.775 158.426 217.108 158.54C217.44 158.653 217.743 158.838 218.015 159.094C218.288 159.347 218.505 159.682 218.667 160.099C218.829 160.517 218.91 161.031 218.91 161.642V162.068H213.865V161.199H217.887C217.887 160.83 217.814 160.5 217.666 160.21C217.521 159.92 217.314 159.692 217.044 159.524C216.777 159.357 216.461 159.273 216.098 159.273C215.697 159.273 215.35 159.372 215.058 159.571C214.768 159.767 214.545 160.023 214.389 160.338C214.233 160.653 214.154 160.991 214.154 161.352V161.932C214.154 162.426 214.24 162.845 214.41 163.189C214.583 163.53 214.824 163.79 215.13 163.969C215.437 164.145 215.794 164.233 216.2 164.233C216.464 164.233 216.703 164.196 216.916 164.122C217.132 164.045 217.318 163.932 217.474 163.781C217.63 163.628 217.751 163.437 217.836 163.21L218.808 163.483C218.706 163.812 218.534 164.102 218.292 164.352C218.051 164.599 217.752 164.793 217.397 164.932C217.042 165.068 216.643 165.136 216.2 165.136ZM220.44 165V158.455H221.412V159.443H221.48C221.599 159.119 221.815 158.857 222.127 158.655C222.44 158.453 222.792 158.352 223.184 158.352C223.258 158.352 223.35 158.354 223.461 158.357C223.572 158.359 223.656 158.364 223.713 158.369V159.392C223.679 159.384 223.6 159.371 223.478 159.354C223.359 159.334 223.233 159.324 223.099 159.324C222.781 159.324 222.497 159.391 222.247 159.524C222 159.655 221.804 159.837 221.659 160.07C221.517 160.3 221.446 160.562 221.446 160.858V165H220.44Z" fill="black"/>
<path d="M201 209.5L177 224.655L177 194.345L201 209.5Z" fill="#D9D9D9"/>
<rect x="175" y="27" width="40.6655" height="44" rx="10" fill="#E18CFF"/>
<rect x="245.24" y="28" width="40.6655" height="44" rx="10" fill="#E18CFF"/>
<rect x="20" y="125" width="13.8632" height="167" fill="black"/>
<rect x="311.42" y="92" width="15" height="153.42" transform="rotate(90 311.42 92)" fill="black"/>
<line x1="254.483" y1="51" x2="275.74" y2="51" stroke="black" stroke-width="4"/>
<line x1="265.725" y1="40" x2="265.725" y2="63" stroke="black" stroke-width="4"/>
<line x1="185.166" y1="51" x2="206.423" y2="51" stroke="black" stroke-width="4"/>
</svg>
