<svg width="272" height="38" viewBox="0 0 272 38" fill="none" xmlns="http://www.w3.org/2000/svg">
<path d="M39.2545 12.568C41.8145 12.568 43.7825 13.224 45.1585 14.536C46.5665 15.816 47.2705 17.752 47.2705 20.344V30.856C47.2705 31.784 47.4145 32.408 47.7025 32.728C47.9905 33.048 48.3585 33.208 48.8065 33.208C49.1265 33.208 49.4305 33.176 49.7185 33.112C50.0385 33.048 50.3585 32.952 50.6785 32.824L51.5905 36.088C50.8865 36.472 50.0865 36.776 49.1905 37C48.2945 37.256 47.4785 37.384 46.7425 37.384C45.5905 37.384 44.6625 37.144 43.9585 36.664C43.2545 36.184 42.7585 35.352 42.4705 34.168C41.5745 35.416 40.5185 36.296 39.3025 36.808C38.1185 37.288 36.7745 37.528 35.2705 37.528C33.4145 37.528 31.8145 37 30.4705 35.944C29.1585 34.856 28.5025 33.336 28.5025 31.384C28.5025 29.656 28.9025 28.248 29.7025 27.16C30.5345 26.04 31.6065 25.192 32.9185 24.616C34.2305 24.008 35.6385 23.592 37.1425 23.368C38.6785 23.144 40.1345 23.032 41.5105 23.032V19.912C41.5105 19.048 41.3825 18.376 41.1265 17.896C40.9025 17.416 40.5345 17.08 40.0225 16.888C39.5105 16.664 38.8545 16.552 38.0545 16.552C36.9665 16.552 35.8785 16.856 34.7905 17.464C33.7025 18.072 32.7425 18.696 31.9105 19.336L29.5585 15.544C30.9985 14.552 32.5345 13.816 34.1665 13.336C35.8305 12.824 37.5265 12.568 39.2545 12.568ZM41.5105 26.968C40.8385 26.968 40.1025 27 39.3025 27.064C38.5025 27.128 37.7345 27.288 36.9985 27.544C36.2625 27.8 35.6545 28.184 35.1745 28.696C34.7265 29.208 34.5025 29.912 34.5025 30.808C34.5025 31.544 34.7905 32.12 35.3665 32.536C35.9745 32.92 36.6145 33.112 37.2865 33.112C38.1825 33.112 38.9345 32.856 39.5425 32.344C40.1825 31.832 40.6625 31.192 40.9825 30.424C41.3345 29.624 41.5105 28.84 41.5105 28.072V26.968Z" fill="#10EEB8"/>
<path d="M60.4772 4.45601C60.4772 5.44801 60.1252 6.31201 59.4212 7.04801C58.7172 7.78401 57.8533 8.15201 56.8293 8.15201C55.8373 8.15201 54.9733 7.78401 54.2373 7.04801C53.5013 6.31201 53.1333 5.44801 53.1333 4.45601C53.1333 3.43201 53.5013 2.56801 54.2373 1.86401C54.9733 1.16001 55.8373 0.808015 56.8293 0.808015C57.8533 0.808015 58.7172 1.16001 59.4212 1.86401C60.1252 2.56801 60.4772 3.43201 60.4772 4.45601ZM59.6613 13.144V37H53.9012V15.736L53.3732 13.144H59.6613Z" fill="#10EEB8"/>
<path d="M73.5801 6.18401C73.3561 7.30401 73.1641 8.45601 73.0041 9.64001C72.8441 10.824 72.7481 11.992 72.7161 13.144H78.5241L77.6121 16.936H72.7161V30.136C72.7161 30.488 72.7481 30.92 72.8121 31.432C72.8761 31.944 73.0521 32.392 73.3401 32.776C73.6281 33.16 74.0921 33.352 74.7321 33.352C75.2761 33.352 75.8041 33.304 76.3161 33.208C76.8281 33.112 77.3401 33 77.8521 32.872L78.5241 36.472C77.6921 36.728 76.7481 36.952 75.6921 37.144C74.6681 37.368 73.7241 37.48 72.8601 37.48C70.8121 37.48 69.2921 37 68.3001 36.04C67.3401 35.08 66.8601 33.544 66.8601 31.432V16.936H62.9241V13.768C63.9161 13.736 64.7801 13.496 65.5161 13.048C66.2521 12.568 66.8761 11.96 67.3881 11.224C67.9321 10.456 68.3641 9.64001 68.6841 8.77602C69.0361 7.88001 69.3081 7.01601 69.5001 6.18401H73.5801Z" fill="#10EEB8"/>
<path d="M87.6032 0.0880127V15.4C88.5312 14.632 89.6033 13.96 90.8193 13.384C92.0353 12.776 93.2673 12.472 94.5153 12.472C96.3713 12.472 97.8113 12.824 98.8353 13.528C99.8593 14.232 100.579 15.224 100.995 16.504C101.411 17.752 101.619 19.208 101.619 20.872V37H95.8112V21.448C95.8112 20.712 95.7472 20.008 95.6192 19.336C95.5232 18.664 95.2513 18.12 94.8033 17.704C94.3873 17.256 93.7153 17.032 92.7873 17.032C92.3073 17.032 91.7153 17.176 91.0113 17.464C90.3393 17.752 89.6833 18.104 89.0433 18.52C88.4353 18.904 87.9552 19.288 87.6032 19.672V37H81.8913V2.68001L81.3152 0.0880127H87.6032Z" fill="#10EEB8"/>
<path d="M142.34 10.072C142.34 11.448 142.02 12.696 141.38 13.816C140.74 14.904 139.876 15.8 138.788 16.504C137.7 17.208 136.5 17.656 135.188 17.848C136.756 18.104 138.196 18.664 139.508 19.528C140.852 20.36 141.924 21.432 142.724 22.744C143.556 24.056 143.972 25.56 143.972 27.256C143.972 29.048 143.604 30.568 142.868 31.816C142.164 33.064 141.204 34.072 139.988 34.84C138.772 35.608 137.412 36.168 135.908 36.52C134.404 36.84 132.884 37 131.348 37H119.06V4.79202C119.06 4.76001 118.996 4.52001 118.868 4.07201C118.772 3.62401 118.676 3.16001 118.58 2.68001C118.484 2.20001 118.42 1.92801 118.388 1.86401H130.868C132.244 1.86401 133.604 1.99201 134.948 2.24801C136.324 2.47201 137.556 2.88801 138.644 3.49601C139.764 4.07201 140.66 4.90401 141.332 5.99201C142.004 7.04801 142.34 8.40801 142.34 10.072ZM135.38 10.984C135.38 9.96001 135.172 9.12801 134.756 8.48801C134.34 7.84801 133.764 7.38401 133.028 7.09601C132.292 6.77601 131.444 6.61601 130.484 6.61601H125.684V15.592H130.628C131.524 15.592 132.324 15.4 133.028 15.016C133.764 14.632 134.34 14.104 134.756 13.432C135.172 12.728 135.38 11.912 135.38 10.984ZM137.012 26.488C137.012 25.048 136.644 23.88 135.908 22.984C135.172 22.056 134.228 21.384 133.076 20.968C131.924 20.552 130.708 20.344 129.428 20.344H125.684V32.248H130.916C132.1 32.248 133.14 32.024 134.036 31.576C134.964 31.128 135.684 30.472 136.196 29.608C136.74 28.744 137.012 27.704 137.012 26.488Z" fill="#10EEB8"/>
<path d="M154.352 13.144V28.264C154.352 29 154.416 29.736 154.544 30.472C154.672 31.208 154.96 31.832 155.408 32.344C155.856 32.824 156.544 33.064 157.472 33.064C158.368 33.064 159.2 32.872 159.968 32.488C160.736 32.104 161.36 31.56 161.84 30.856C162.32 30.152 162.56 29.336 162.56 28.408V15.736C162.56 15.704 162.512 15.496 162.416 15.112C162.32 14.696 162.224 14.28 162.128 13.864C162.064 13.448 162.016 13.208 161.984 13.144H168.416V30.808C168.416 31.704 168.544 32.328 168.8 32.68C169.088 33.032 169.488 33.208 170 33.208C170.448 33.208 171.056 33.08 171.824 32.824L172.736 36.088C172.064 36.408 171.28 36.712 170.384 37C169.52 37.256 168.656 37.384 167.792 37.384C166.8 37.384 165.904 37.144 165.104 36.664C164.304 36.184 163.776 35.352 163.52 34.168C162.496 35.224 161.296 36.072 159.92 36.712C158.576 37.352 157.152 37.672 155.648 37.672C153.824 37.672 152.384 37.32 151.328 36.616C150.304 35.912 149.568 34.936 149.12 33.688C148.704 32.408 148.496 30.936 148.496 29.272V15.736L147.968 13.144H154.352Z" fill="#10EEB8"/>
<path d="M179.683 12.664C180.387 14.264 180.771 15.944 180.835 17.704C181.635 16.36 182.755 15.192 184.195 14.2C185.635 13.176 187.155 12.664 188.755 12.664L187.795 18.376C186.387 18.376 185.123 18.744 184.003 19.48C182.915 20.184 181.875 21.288 180.883 22.792V37H175.123V19.576C175.123 18.968 175.075 18.264 174.979 17.464C174.883 16.632 174.723 15.832 174.499 15.064C174.275 14.296 173.971 13.656 173.587 13.144L179.683 12.664Z" fill="#10EEB8"/>
<path d="M196.706 12.616C196.93 13.096 197.106 13.608 197.234 14.152C197.362 14.664 197.458 15.176 197.522 15.688C198.482 14.824 199.602 14.072 200.882 13.432C202.194 12.792 203.506 12.472 204.818 12.472C206.674 12.472 208.114 12.824 209.138 13.528C210.162 14.232 210.882 15.224 211.298 16.504C211.714 17.752 211.922 19.208 211.922 20.872V37H206.114V21.448C206.114 20.712 206.05 20.008 205.922 19.336C205.826 18.664 205.554 18.12 205.106 17.704C204.69 17.256 204.018 17.032 203.09 17.032C202.61 17.032 202.018 17.176 201.314 17.464C200.642 17.752 199.986 18.104 199.346 18.52C198.738 18.904 198.258 19.288 197.906 19.672V37H192.146V19.912C192.146 19.336 192.098 18.632 192.002 17.8C191.938 16.936 191.794 16.088 191.57 15.256C191.346 14.424 191.042 13.784 190.658 13.336L196.706 12.616Z" fill="#10EEB8"/>
<path d="M227.564 12.472C229.772 12.472 231.58 12.952 232.988 13.912C234.428 14.872 235.484 16.12 236.156 17.656C236.86 19.16 237.212 20.776 237.212 22.504C237.212 23.016 237.18 23.56 237.116 24.136C237.052 24.68 236.94 25.224 236.78 25.768H222.188C222.188 28.328 222.796 30.296 224.012 31.672C225.228 33.016 226.812 33.688 228.764 33.688C229.692 33.688 230.684 33.528 231.74 33.208C232.828 32.888 233.948 32.392 235.1 31.72L236.636 34.984C235.548 35.848 234.172 36.488 232.508 36.904C230.876 37.32 229.404 37.528 228.092 37.528C226.236 37.528 224.556 37.24 223.052 36.664C221.58 36.088 220.316 35.256 219.26 34.168C218.236 33.08 217.452 31.784 216.908 30.28C216.364 28.776 216.092 27.096 216.092 25.24C216.092 23.544 216.348 21.944 216.86 20.44C217.372 18.904 218.124 17.544 219.116 16.36C220.108 15.144 221.308 14.2 222.716 13.528C224.156 12.824 225.772 12.472 227.564 12.472ZM227.324 16.408C226.268 16.408 225.372 16.696 224.636 17.272C223.932 17.848 223.388 18.568 223.004 19.432C222.62 20.296 222.396 21.144 222.332 21.976H231.212C231.372 21.048 231.324 20.168 231.068 19.336C230.812 18.472 230.364 17.768 229.724 17.224C229.084 16.68 228.284 16.408 227.324 16.408Z" fill="#10EEB8"/>
<path d="M250.439 6.18401C250.215 7.30401 250.023 8.45601 249.863 9.64001C249.703 10.824 249.608 11.992 249.576 13.144H255.383L254.471 16.936H249.576V30.136C249.576 30.488 249.607 30.92 249.671 31.432C249.735 31.944 249.911 32.392 250.199 32.776C250.487 33.16 250.952 33.352 251.592 33.352C252.136 33.352 252.664 33.304 253.176 33.208C253.688 33.112 254.2 33 254.712 32.872L255.383 36.472C254.551 36.728 253.607 36.952 252.551 37.144C251.527 37.368 250.583 37.48 249.719 37.48C247.671 37.48 246.152 37 245.16 36.04C244.2 35.08 243.719 33.544 243.719 31.432V16.936H239.783V13.768C240.775 13.736 241.64 13.496 242.376 13.048C243.112 12.568 243.735 11.96 244.247 11.224C244.791 10.456 245.224 9.64001 245.544 8.77602C245.896 7.88001 246.167 7.01601 246.359 6.18401H250.439Z" fill="#10EEB8"/>
<path d="M266.143 6.18401C265.919 7.30401 265.727 8.45601 265.567 9.64001C265.407 10.824 265.311 11.992 265.279 13.144H271.087L270.175 16.936H265.279V30.136C265.279 30.488 265.311 30.92 265.375 31.432C265.439 31.944 265.615 32.392 265.903 32.776C266.191 33.16 266.655 33.352 267.295 33.352C267.839 33.352 268.367 33.304 268.879 33.208C269.391 33.112 269.903 33 270.415 32.872L271.087 36.472C270.255 36.728 269.311 36.952 268.255 37.144C267.231 37.368 266.287 37.48 265.423 37.48C263.375 37.48 261.855 37 260.863 36.04C259.903 35.08 259.423 33.544 259.423 31.432V16.936H255.487V13.768C256.479 13.736 257.343 13.496 258.079 13.048C258.815 12.568 259.439 11.96 259.951 11.224C260.495 10.456 260.927 9.64001 261.247 8.77602C261.599 7.88001 261.871 7.01601 262.063 6.18401H266.143Z" fill="#10EEB8"/>
<path d="M0 8.00002H26V9.00002H0V8.00002Z" fill="#10EEB8"/>
<path d="M0 6.00002H26V7.00002H0V6.00002Z" fill="#10EEB8"/>
<path d="M0 4.00002H26V5.00002H0V4.00002Z" fill="#10EEB8"/>
<path d="M0 2.00002H26V3.00002H0V2.00002Z" fill="#10EEB8"/>
<path d="M0 10H26V11H0V10Z" fill="#10EEB8"/>
<path d="M0 21H19V22H0V21Z" fill="#10EEB8"/>
<path d="M0 19H19V20H0V19Z" fill="#10EEB8"/>
<path d="M0 23H19V24H0V23Z" fill="#10EEB8"/>
<path d="M0 25H19V26H0V25Z" fill="#10EEB8"/>
<path d="M0 10H11V37H0V10Z" fill="#10EEB8"/>
</svg>
